<?xml version="1.0" encoding="utf-8"?>
<!-- Generator: Adobe Illustrator 23.0.4, SVG Export Plug-In . SVG Version: 6.00 Build 0)  -->
<svg version="1.1" id="Layer_1" xmlns="http://www.w3.org/2000/svg" xmlns:xlink="http://www.w3.org/1999/xlink" x="0px" y="0px"
	 viewBox="0 0 200.2 24.3" style="enable-background:new 0 0 200.2 24.3;" xml:space="preserve">
<style type="text/css">
	.st0{fill:#010202;}
</style>
<g>
	<path class="st0" d="M5.7,17.6v-0.3h0.5c0.4,0,0.8,0,0.8-0.3c0-0.1,0-0.2-0.1-0.2l-0.8-2.2H3.9l-0.7,2.1C3.1,16.7,3,16.9,3,17
		c0,0.3,0.5,0.3,1,0.3h0.2v0.3h-3v-0.3c0.9,0,1-0.3,1.3-1.1l2.1-6L4.6,9.9h1.1l2.4,6.7c0.2,0.5,0.5,0.6,1,0.6v0.3H5.7z M5,11.2
		l-0.9,2.7H6L5,11.2z"/>
	<path class="st0" d="M14.5,17.8c-1.4,0-2.1-1.3-2.1-2.3c0-1.1,0.7-2.7,2.8-2.7c0.7,0,1.4,0.3,1.4,0.7c0,0.2-0.1,0.3-0.4,0.3
		c-0.6,0-0.7-0.6-1.2-0.6c-0.6,0-1.6,0.5-1.6,2c0,1.5,0.9,2,1.6,2c0.6,0,1.1-0.3,1.5-0.8l0.3,0.2C16.1,17.4,15.2,17.8,14.5,17.8z"/>
	<path class="st0" d="M20,17.8c-1.6,0-2.7-1.2-2.7-2.5c0-1.5,1.1-2.6,2.6-2.6c1.6,0,2.7,1.2,2.7,2.5C22.6,16.6,21.5,17.8,20,17.8z
		 M19.8,13.2c-0.7,0-1.5,0.6-1.5,1.8c0,0.9,0.6,2.4,1.8,2.4c0.7,0,1.4-0.6,1.4-1.8C21.6,14.4,20.8,13.2,19.8,13.2z"/>
	<path class="st0" d="M29.7,17.6v-0.3h0.2c0.2,0,0.4-0.1,0.5-0.2c0.2-0.2,0.2-0.4,0.2-1.9c0-1.1,0-1.9-0.9-1.9
		c-0.5,0-1.1,0.4-1.5,0.6v2.9c0,0.3,0.2,0.4,0.5,0.4h0.2v0.3h-2.5v-0.3c0.6,0,0.8-0.2,0.8-0.8v-2c0-0.7-0.3-1.2-0.8-1.2
		c-0.5,0-1,0.3-1.5,0.6v2.8c0,0.4,0.1,0.5,0.6,0.5h0.3v0.3h-2.6v-0.3h0.2c0.4,0,0.7-0.2,0.7-0.6v-2.8c0-0.3,0-0.3-0.8-0.5v-0.3
		l1.5-0.6H25v1c0.9-0.5,1.5-0.8,2-0.8c0.6,0,0.9,0.3,1.1,0.9c0.8-0.5,1.5-0.9,2.1-0.9c0.6,0,1.2,0.4,1.2,1.8c0,1.4,0,1.9,0,2.3
		c0,0.3,0.1,0.4,0.6,0.4h0.4v0.3H29.7z"/>
	<path class="st0" d="M39.1,17.6v-0.3h0.2c0.2,0,0.4-0.1,0.5-0.2c0.2-0.2,0.2-0.4,0.2-1.9c0-1.1,0-1.9-0.9-1.9
		c-0.5,0-1.1,0.4-1.5,0.6v2.9c0,0.3,0.2,0.4,0.5,0.4h0.2v0.3h-2.5v-0.3c0.6,0,0.8-0.2,0.8-0.8v-2c0-0.7-0.3-1.2-0.8-1.2
		c-0.5,0-1,0.3-1.5,0.6v2.8c0,0.4,0.1,0.5,0.6,0.5h0.3v0.3h-2.6v-0.3h0.2c0.4,0,0.7-0.2,0.7-0.6v-2.8c0-0.3,0-0.3-0.8-0.5v-0.3
		l1.5-0.6h0.2v1c0.9-0.5,1.5-0.8,2-0.8c0.6,0,0.9,0.3,1.1,0.9c0.8-0.5,1.5-0.9,2.1-0.9c0.6,0,1.2,0.4,1.2,1.8c0,1.4,0,1.9,0,2.3
		c0,0.3,0.1,0.4,0.6,0.4H42v0.3H39.1z"/>
	<path class="st0" d="M46.4,17.8h-0.2V17c-0.8,0.5-1.3,0.8-1.9,0.8c-0.6,0-1.4-0.4-1.4-1.4v-2.9c0-0.2-0.1-0.2-0.7-0.3v-0.3l1.4-0.3
		h0.2v3.5c0,0.7,0.6,1,1,1c0.5,0,0.9-0.2,1.4-0.5v-3c0-0.2,0-0.2-0.1-0.3c-0.2-0.1-0.8-0.1-0.9-0.1v-0.3l1.8-0.3h0.2v4.2
		c0,0.2,0,0.3,0.7,0.2v0.3L46.4,17.8z"/>
	<path class="st0" d="M51.6,17.6v-0.3h0.3c0.2,0,0.3-0.1,0.4-0.2c0.2-0.2,0.3-0.5,0.3-2.6c0-0.8-0.3-1.2-0.9-1.2
		c-0.4,0-0.8,0.2-1.4,0.6v2.9c0,0.3,0.2,0.4,0.5,0.4h0.2v0.3h-2.4v-0.3c0.5,0,0.7-0.2,0.7-0.6v-2.8c0-0.1,0-0.2-0.1-0.2
		c-0.1-0.1-0.5-0.2-0.7-0.2v-0.3l1.4-0.5h0.2v1c0.5-0.3,1.3-0.8,2-0.8c0.7,0,1.3,0.5,1.3,1.7c0,1.2-0.1,2.3-0.1,2.4
		c0,0.2,0.1,0.3,0.6,0.3h0.2v0.3H51.6z"/>
	<path class="st0" d="M54.6,17.6v-0.3h0.3c0.4,0,0.7-0.2,0.7-0.8v-2.6c0-0.3-0.1-0.3-0.9-0.5v-0.3l1.6-0.5h0.2v4.2
		c0,0.3,0.2,0.5,0.7,0.5h0.2v0.3H54.6z M56,11.5c-0.3,0-0.6-0.2-0.6-0.5c0-0.3,0.2-0.5,0.6-0.5c0.5,0,0.6,0.3,0.6,0.5
		C56.6,11.2,56.4,11.5,56,11.5z"/>
	<path class="st0" d="M60.9,13.5h-1.5v2.7c0,0.5,0.2,0.8,0.6,0.8c0.3,0,0.5-0.2,0.7-0.6l0.3,0.2c-0.3,0.7-0.8,1.1-1.4,1.1
		c-0.9,0-1.2-0.7-1.2-1.5v-2.8h-0.6v-0.3c0.6-0.4,0.9-0.8,1.2-1.5h0.2v1.1h1.7L60.9,13.5z"/>
	<path class="st0" d="M66.3,14.3l-1.8,4.4c-0.1,0.3-0.2,0.6-0.4,0.9c-0.2,0.4-0.5,1.3-1.1,1.3c-0.3,0-0.5-0.2-0.5-0.5
		c0-0.4,0.4-0.4,0.6-0.6c0.4-0.2,0.7-0.7,1-1.5l0.2-0.6l-1.8-3.9c-0.2-0.6-0.5-0.6-1.1-0.6v-0.3h2.7v0.3c-0.2,0-0.7,0-0.7,0.3
		c0,0.1,0,0.2,0.1,0.3l1.3,2.8l1-2.6c0-0.1,0.1-0.3,0.1-0.4c0-0.3-0.4-0.4-0.7-0.4v-0.3h2v0.3C66.7,13.3,66.5,13.6,66.3,14.3z"/>
	<path class="st0" d="M73.1,17.8c-0.4,0-0.6,0-0.9-0.1c-0.2,0-0.5-0.1-1.1-0.2v-7.4c0-0.2-0.1-0.3-0.8-0.5V9.4l1.5-0.5h0.2v4.6
		c0.5-0.3,1.2-0.8,1.8-0.8c1,0,1.9,1,1.9,2.3C75.8,16.1,74.9,17.8,73.1,17.8z M73.3,13.4c-0.4,0-0.9,0.2-1.3,0.5v2.4
		c0,0.6,0.5,1.1,1.2,1.1c0.8,0,1.5-0.7,1.5-1.9C74.8,14,74.1,13.4,73.3,13.4z"/>
	<path class="st0" d="M80.6,17.8h-0.2V17c-0.8,0.5-1.3,0.8-1.9,0.8c-0.6,0-1.4-0.4-1.4-1.4v-2.9c0-0.2-0.1-0.2-0.7-0.3v-0.3l1.4-0.3
		h0.2v3.5c0,0.7,0.6,1,1,1c0.5,0,0.9-0.2,1.4-0.5v-3c0-0.2,0-0.2-0.1-0.3c-0.2-0.1-0.8-0.1-0.9-0.1v-0.3l1.8-0.3h0.2v4.2
		c0,0.2,0,0.3,0.7,0.2v0.3L80.6,17.8z"/>
	<path class="st0" d="M82.6,17.6v-0.3h0.3c0.4,0,0.7-0.2,0.7-0.8v-2.6c0-0.3-0.1-0.3-0.9-0.5v-0.3l1.6-0.5h0.2v4.2
		c0,0.3,0.2,0.5,0.7,0.5h0.2v0.3H82.6z M84,11.5c-0.3,0-0.6-0.2-0.6-0.5c0-0.3,0.2-0.5,0.6-0.5c0.5,0,0.6,0.3,0.6,0.5
		C84.6,11.2,84.4,11.5,84,11.5z"/>
	<path class="st0" d="M85.7,17.6v-0.3c0.7,0,0.9-0.2,0.9-0.8v-6.3c0-0.2-0.1-0.3-0.9-0.5V9.4l1.6-0.5h0.2v7.9c0,0.4,0.1,0.5,0.9,0.5
		v0.3H85.7z"/>
	<path class="st0" d="M92,13.5h-1.5v2.7c0,0.5,0.2,0.8,0.6,0.8c0.3,0,0.5-0.2,0.7-0.6l0.3,0.2c-0.3,0.7-0.8,1.1-1.4,1.1
		c-0.9,0-1.2-0.7-1.2-1.5v-2.8H89v-0.3c0.6-0.4,0.9-0.8,1.2-1.5h0.2v1.1h1.7L92,13.5z"/>
	<path class="st0" d="M98,17.8c-0.4,0-0.6,0-0.9-0.1c-0.2,0-0.5-0.1-1.1-0.2v-7.4c0-0.2-0.1-0.3-0.8-0.5V9.4l1.5-0.5H97v4.6
		c0.5-0.3,1.2-0.8,1.8-0.8c1,0,1.9,1,1.9,2.3C100.7,16.1,99.8,17.8,98,17.8z M98.2,13.4c-0.4,0-0.9,0.2-1.3,0.5v2.4
		c0,0.6,0.5,1.1,1.2,1.1c0.8,0,1.5-0.7,1.5-1.9C99.7,14,99,13.4,98.2,13.4z"/>
	<path class="st0" d="M105.6,14.3l-1.8,4.4c-0.1,0.3-0.2,0.6-0.4,0.9c-0.2,0.4-0.5,1.3-1.1,1.3c-0.3,0-0.5-0.2-0.5-0.5
		c0-0.4,0.4-0.4,0.6-0.6c0.4-0.2,0.7-0.7,1-1.5l0.2-0.6l-1.8-3.9c-0.2-0.6-0.5-0.6-1.1-0.6v-0.3h2.7v0.3c-0.2,0-0.7,0-0.7,0.3
		c0,0.1,0,0.2,0.1,0.3l1.3,2.8l1-2.6c0-0.1,0.1-0.3,0.1-0.4c0-0.3-0.4-0.4-0.7-0.4v-0.3h2v0.3C106,13.3,105.8,13.6,105.6,14.3z"/>
</g>
<path class="st0" d="M155.9,17.3c-1.5,0-1.6-1.2-1.6-2.8V7.4c2.2-0.5,5.2-1.6,7.3-1.6c2.7,0,3.7,1.3,3.7,2.3c0,0.4-0.2,0.7-0.2,1.1
	c0,0.8,0.6,1.2,1.1,1.2c0.9,0,1.2-0.8,1.2-1.4c0-1.7-1.7-4.2-5.7-4.2c-2.5,0-5.2,1-7.5,1.6V2.7h-0.5c-0.4,1.6-1.3,4-3.4,4.4v0.5
	c0.5,0.1,1,0.2,1.5,0.2v6.7c0,2.7,1,3.8,3.3,3.8c1,0,1.9-0.4,2.6-1.1l-0.3-0.5C157.2,16.9,156.5,17.3,155.9,17.3"/>
<path class="st0" d="M136,15.8v-5.2c0-2-0.7-3.8-4.2-3.8c-2.4,0-4.3,1.2-4.3,2.6c0,0.6,0.5,1.2,1.2,1.2c0.6,0,1.2-0.5,1.2-1.2
	c0-0.4-0.2-0.7-0.2-0.9c0-0.5,1.2-0.9,2.1-0.9c1.2,0,1.8,0.8,1.8,2.8v1c-3.2,0-6.6,1.1-6.6,4c0,1.9,1.2,2.9,2.9,2.9
	c1.4,0,2.8-0.7,3.7-2.2c0,1.5,0.5,2.2,1.8,2.2c0.5,0,1.1-0.1,1.8-0.3v-0.6C136.4,17.4,136,16.9,136,15.8 M133.7,13
	c0,1.9-0.8,3.6-2.5,3.6c-0.9,0-1.6-0.9-1.6-1.8c0-1.9,1.6-2.8,4.1-2.9V13z"/>
<path class="st0" d="M177.9,15.8v-5.2c0-2-0.7-3.8-4.2-3.8c-2.4,0-4.3,1.2-4.3,2.6c0,0.6,0.5,1.2,1.2,1.2c0.6,0,1.2-0.5,1.2-1.2
	c0-0.4-0.2-0.7-0.2-0.9c0-0.5,1.2-0.9,2.1-0.9c1.2,0,1.8,0.8,1.8,2.8v1c-3.2,0-6.6,1.1-6.6,4c0,1.9,1.2,2.9,2.9,2.9
	c1.4,0,2.8-0.7,3.7-2.2c0,1.5,0.5,2.2,1.8,2.2c0.5,0,1.1-0.1,1.8-0.3v-0.6C178.3,17.4,177.9,16.9,177.9,15.8 M175.6,13
	c0,1.9-0.8,3.6-2.5,3.6c-0.9,0-1.6-0.9-1.6-1.8c0-1.9,1.6-2.8,4.1-2.9V13z"/>
<path class="st0" d="M198.4,15.1c-0.4,0.7-1.8,2-3.6,2c-1.1,0-3-0.9-3.3-4.1c0.6,0.2,1.2,0.3,1.8,0.3c2.9,0,4.9-1.5,4.9-3.4
	c0-1.7-1.8-3.1-4-3.1c-3.7,0-5.4,3-5.4,5.7c0,3.8,2.5,5.7,5.4,5.7c2.7,0,4.3-2,4.7-2.7L198.4,15.1z M194.2,7.6c1,0,2,0.7,2,2.3
	c0,1.1-0.6,2.6-2.8,2.6c-0.7,0-1.4-0.2-1.9-0.3C191.5,9.6,192.6,7.6,194.2,7.6"/>
<path class="st0" d="M163.7,17.1c-1.7,0-3.3-1.6-3.3-4.8c0-2.5,1.4-4.6,3.1-4.9c-0.2-0.2-0.6-0.3-1.3-0.3c-1.4,0-4.4,1.3-4.4,5.4
	c0,3.8,2.5,5.7,5.4,5.7c2.7,0,4.3-2,4.7-2.7l-0.5-0.4C166.9,15.8,165.6,17.1,163.7,17.1"/>
<path class="st0" d="M122,8.8c1.6-0.6,2.4-1.8,2.4-3.5c0-2.4-1.7-4-4.9-4H113v0.5c0.8,0,1.5,0.7,1.5,1.6v12.5c0,1-0.7,1.6-1.5,1.6
	V18h6.8c4.4,0,5.9-2.5,5.9-4.8C125.7,10.9,124,9.3,122,8.8 M117.1,2h2c2,0,2.9,1.5,2.9,3.3c0,1.8-0.7,3.3-2.7,3.3h-2.2V2z M119,17.3
	c-1.6,0-1.9-0.6-1.9-2.1V9.3h2.4c2.1,0,3.4,1,3.4,3.9S121.3,17.3,119,17.3"/>
<path class="st0" d="M187.5,6.5c-1.3,0-2.5,0.6-3.3,2.4c0-1.4-0.7-2.2-2-2.2c-0.5,0-1.1,0.1-1.8,0.3v0.5c0.9-0.1,1.5,0.7,1.5,1.8
	v6.6c0,1-0.7,1.6-1.5,1.6V18h5.4v-0.5c-0.8,0-1.5-0.7-1.5-1.6v-4.3c0-1.5,0.7-3.4,1.4-3.4c0.7,0,1.1,0.9,2,0.9
	c0.7,0,1.3-0.5,1.3-1.2C188.9,7,188.3,6.5,187.5,6.5"/>
<path class="st0" d="M144.7,6.7c-1.4,0-2.4,0.5-3.2,1.6c-0.2-1-0.8-1.6-2-1.6c-0.5,0-1.1,0.1-1.8,0.3v0.5c0.9-0.1,1.5,0.7,1.5,1.8
	v11.9c0,1-0.7,1.6-1.5,1.6v0.5h5.4v-0.5c-0.8,0-1.5-0.7-1.5-1.6v-4.5c0.8,1.1,1.7,1.5,3.2,1.5c2.6,0,5-2.5,5-5.7
	C149.7,9.1,147.6,6.7,144.7,6.7 M144.3,17.4c-2.2,0-2.8-2.4-2.8-4.9c0-2.5,0.6-5,2.8-5c1.7,0,2.8,2.3,2.8,5S146,17.4,144.3,17.4"/>
</svg>
