<svg version="1.2" xmlns="http://www.w3.org/2000/svg" xmlns:xlink="http://www.w3.org/1999/xlink" overflow="visible" preserveAspectRatio="none" viewBox="0 0 102 102" xml:space="preserve" y="0px" x="0px" id="Layer_1_1560738069166" width="100" height="100"><g transform="translate(1, 1)"><style type="text/css">
	.st0_1560738069166{fill:#434444;}
</style><g>
	<path d="M89.9,45.9c-0.1-1.3-0.3-2.6-0.6-3.8C86.1,26.6,73.4,14.4,57.6,12c-1.9-0.3-3.8-0.4-5.8-0.4   c-0.7,0-1.3,0-1.9,0c-0.1,0-0.3,0-0.4,0c-0.5,0-1,0.1-1.6,0.1c-0.1,0-0.2,0-0.3,0c-0.6,0.1-1.1,0.1-1.7,0.2c0,0,0,0-0.1,0   c-7.4,1.1-14.2,4.4-19.8,9.5c-0.2,0.2-0.4,0.3-0.5,0.5c-0.3,0.3-0.5,0.5-0.8,0.8c-0.2,0.2-0.5,0.5-0.7,0.8   c-0.2,0.2-0.4,0.4-0.5,0.6c-5.1,5.6-8.4,12.5-9.5,19.8c0,0,0,0,0,0.1c-0.1,0.5-0.2,1.1-0.2,1.7c0,0.1,0,0.2,0,0.3   c-0.1,0.5-0.1,1-0.1,1.6c0,0.1,0,0.3,0,0.4c0,0.6,0,1.3,0,1.9c0,0,0,0,0,0c0,1,0.1,2,0.1,3c0.7,9.1,4.6,17.5,11.1,24   c0.5,0.5,1.1,1,1.6,1.5c1.3,1.2,2.8,2.3,4.2,3.3c0,0,0.1,0,0.1,0.1c1,0.7,2.1,1.3,3.2,1.9c5.5,2.9,11.6,4.5,18,4.5c0,0,0,0,0,0   c0.7,0,1.3,0,1.9,0c0.1,0,0.2,0,0.4,0c0.5,0,1-0.1,1.6-0.1c0.1,0,0.2,0,0.3,0c0.6-0.1,1.1-0.1,1.7-0.2c0,0,0.1,0,0.1,0   c7.4-1.1,14.2-4.4,19.8-9.5c0.2-0.2,0.4-0.4,0.7-0.6c0.2-0.2,0.5-0.4,0.7-0.6c0.2-0.2,0.4-0.4,0.6-0.7c0.2-0.2,0.4-0.4,0.6-0.7   c5.1-5.6,8.4-12.5,9.5-19.8c0,0,0-0.1,0-0.1c0.1-0.5,0.1-1.1,0.2-1.6c0-0.1,0-0.2,0-0.3c0.1-0.5,0.1-1,0.1-1.5c0-0.1,0-0.3,0-0.4   c0-0.6,0-1.3,0-1.9c0,0,0,0,0,0C90.1,48.5,90,47.2,89.9,45.9z M87.5,52.7c0,0.1,0,0.2,0,0.3c0,0.4-0.1,0.8-0.1,1.2   c0,0.2-0.1,0.4-0.1,0.6c0,0.3-0.1,0.6-0.1,0.9c0,0.2-0.1,0.4-0.1,0.7c-0.1,0.3-0.1,0.6-0.2,0.9c0,0.2-0.1,0.5-0.2,0.7   c-0.1,0.3-0.1,0.6-0.2,0.8c-0.1,0.2-0.1,0.5-0.2,0.7c-0.1,0.3-0.2,0.5-0.2,0.8c-0.1,0.2-0.1,0.5-0.2,0.7c-0.1,0.3-0.2,0.5-0.3,0.8   c-0.1,0.2-0.2,0.4-0.2,0.7c-0.1,0.3-0.2,0.5-0.3,0.8c-0.1,0.2-0.2,0.4-0.3,0.7c-0.1,0.3-0.2,0.5-0.3,0.8c-0.1,0.2-0.2,0.4-0.3,0.6   c-0.1,0.3-0.3,0.5-0.4,0.8c-0.1,0.2-0.2,0.4-0.3,0.6c-0.1,0.3-0.3,0.5-0.4,0.8c-0.1,0.2-0.2,0.4-0.3,0.6c-0.2,0.3-0.3,0.5-0.5,0.8   c-0.1,0.2-0.2,0.4-0.4,0.6c-0.2,0.3-0.3,0.5-0.5,0.8c-0.1,0.2-0.2,0.4-0.4,0.5c-0.2,0.3-0.4,0.5-0.6,0.8c-0.1,0.2-0.2,0.3-0.4,0.5   c-0.2,0.3-0.4,0.5-0.7,0.8c-0.1,0.1-0.2,0.3-0.3,0.4c-0.3,0.4-0.7,0.8-1,1.2c0,0,0,0,0,0l-2.4-2.4c0,0,0,0,0,0   c-0.2-0.1-0.4-0.1-0.6,0c0,0,0,0,0,0l-0.2,0.2L74,72.9c0,0-0.1,0.1-0.1,0.1c0,0,0,0,0,0c0,0,0,0.1,0,0.1c0,0,0,0,0,0   c0,0,0,0.1,0,0.1c0,0,0,0,0,0.1c0,0,0,0.1,0,0.1l1.2,1.2l1.1,1.1c-1,1-2.1,1.8-3.2,2.7c-5.4,4-11.8,6.5-18.5,7l-2.5-6.2   c-0.1-0.2-0.2-0.3-0.4-0.3c0,0,0,0,0,0s0,0,0,0c0,0-0.1,0-0.1,0c0,0,0,0-0.1,0c0,0,0,0-0.1,0c0,0,0,0-0.1,0c0,0,0,0,0,0   c0,0,0,0-0.1,0c0,0-0.1,0.1-0.1,0.1l-2.5,6.2c-2.5-0.2-4.9-0.7-7.3-1.4c-0.1,0-0.1,0-0.2-0.1c-0.1,0-0.1,0-0.2-0.1   c-3.3-1-6.5-2.5-9.4-4.4c-0.2-0.2-0.5-0.3-0.7-0.5c-0.2-0.1-0.4-0.3-0.6-0.4c-1.2-0.9-2.4-1.9-3.5-2.9l2.4-2.4c0,0,0,0,0,0l0,0   c0,0,0,0,0,0c0.1-0.1,0.1-0.3,0-0.5c0,0,0-0.1-0.1-0.1L29,72.4l-0.3-0.3c0,0-0.1-0.1-0.1-0.1c0,0,0,0,0,0c0,0-0.1,0-0.1,0   c0,0,0,0,0,0c0,0-0.1,0-0.1,0c0,0,0,0-0.1,0c0,0-0.1,0-0.1,0.1l-1.5,1.5l-0.8,0.8c-0.6-0.7-1.2-1.3-1.8-2   c-4.6-5.6-7.3-12.5-7.9-19.7l5.7-2.3l0.5-0.2c0,0,0,0,0,0l0,0c0,0,0.1,0,0.1-0.1c0,0,0,0,0,0c0,0,0.1-0.1,0.1-0.1c0,0,0,0,0,0   c0,0,0,0,0-0.1c0,0,0,0,0-0.1c0,0,0,0,0,0c0,0,0-0.1,0-0.1v0c0-0.2-0.1-0.4-0.3-0.4L16.1,47c0.2-2.9,0.8-5.8,1.8-8.5   c1.6-4.9,4.3-9.4,7.9-13.2l1.9,1.9l0.4,0.4c0,0,0,0,0,0c0.1,0.1,0.3,0.1,0.5,0c0,0,0.1,0,0.1-0.1l0.6-0.6l0.2-0.2   c0.1-0.1,0.1-0.2,0.1-0.3c0-0.1,0-0.2-0.1-0.3l-2.3-2.3l-0.1-0.1c0.4-0.4,0.8-0.7,1.2-1.1c0.1-0.1,0.2-0.2,0.3-0.3   c0.3-0.2,0.6-0.5,0.9-0.7c0.2-0.1,0.3-0.2,0.5-0.3c0.3-0.2,0.5-0.4,0.8-0.6c0.2-0.1,0.3-0.2,0.5-0.4c0.3-0.2,0.5-0.4,0.8-0.5   c0.2-0.1,0.4-0.2,0.6-0.4c0.3-0.2,0.5-0.3,0.8-0.5c0.2-0.1,0.4-0.2,0.6-0.3c0.3-0.1,0.5-0.3,0.8-0.4c0.2-0.1,0.4-0.2,0.6-0.3   c0.3-0.1,0.5-0.3,0.8-0.4c0.2-0.1,0.4-0.2,0.6-0.3c0.3-0.1,0.5-0.2,0.8-0.3c0.2-0.1,0.4-0.2,0.7-0.3c0.3-0.1,0.5-0.2,0.8-0.3   c0.2-0.1,0.4-0.2,0.7-0.3c0.3-0.1,0.5-0.2,0.8-0.3c0.2-0.1,0.5-0.2,0.7-0.2c0.3-0.1,0.5-0.2,0.8-0.2c0.2-0.1,0.5-0.1,0.7-0.2   c0.3-0.1,0.6-0.1,0.8-0.2c0.2-0.1,0.5-0.1,0.7-0.2c0.3-0.1,0.6-0.1,0.9-0.2c0.2,0,0.5-0.1,0.7-0.1c0.3-0.1,0.6-0.1,0.9-0.1   c0.2,0,0.4-0.1,0.6-0.1c0.4,0,0.7-0.1,1.1-0.1c0.2,0,0.3,0,0.5,0l2.5,6.2c0.1,0.2,0.2,0.3,0.4,0.3c0.2,0,0.4-0.1,0.4-0.3l2.5-6.2   c0,0,0,0,0,0c0.1,0,0.2,0,0.4,0c0.4,0,0.8,0.1,1.2,0.1c0.2,0,0.4,0.1,0.6,0.1c0.3,0,0.6,0.1,0.9,0.1c0.2,0,0.4,0.1,0.7,0.1   c0.3,0.1,0.6,0.1,0.9,0.2c0.2,0,0.5,0.1,0.7,0.2c0.3,0.1,0.6,0.1,0.8,0.2c0.2,0.1,0.5,0.1,0.7,0.2c0.3,0.1,0.5,0.2,0.8,0.2   c0.2,0.1,0.5,0.1,0.7,0.2c0.3,0.1,0.5,0.2,0.8,0.3c0.2,0.1,0.4,0.2,0.7,0.2c0.3,0.1,0.5,0.2,0.8,0.3c0.2,0.1,0.4,0.2,0.7,0.3   c0.3,0.1,0.5,0.2,0.8,0.3c0.2,0.1,0.4,0.2,0.6,0.3c0.3,0.1,0.5,0.3,0.8,0.4c0.2,0.1,0.4,0.2,0.6,0.3c0.3,0.1,0.5,0.3,0.7,0.4   c0.2,0.1,0.4,0.2,0.6,0.4c0.2,0.1,0.5,0.3,0.7,0.5c0.2,0.1,0.4,0.2,0.6,0.4c0.2,0.2,0.5,0.3,0.7,0.5c0.2,0.1,0.4,0.3,0.6,0.4   c0.2,0.2,0.5,0.4,0.7,0.5c0.2,0.1,0.4,0.3,0.5,0.4c0.2,0.2,0.5,0.4,0.7,0.6c0.2,0.1,0.3,0.3,0.5,0.4c0.3,0.3,0.6,0.5,0.9,0.8   c0.1,0.1,0.2,0.2,0.3,0.3L74,26.2c0,0,0,0,0,0c-0.1,0.2-0.1,0.4,0,0.5c0,0,0,0,0,0l0.2,0.2l0.6,0.6c0.1,0.1,0.2,0.1,0.3,0.1   c0.1,0,0.2,0,0.3-0.1l2.4-2.4c0.4,0.4,0.7,0.8,1.1,1.2c0.1,0.1,0.2,0.2,0.3,0.4c0.2,0.3,0.5,0.6,0.7,0.9c0.1,0.2,0.2,0.3,0.4,0.5   c0.2,0.3,0.4,0.5,0.6,0.8c0.1,0.2,0.2,0.4,0.4,0.5c0.2,0.3,0.4,0.5,0.5,0.8c0.1,0.2,0.2,0.4,0.4,0.6c0.2,0.3,0.3,0.5,0.5,0.8   c0.1,0.2,0.2,0.4,0.3,0.6c0.1,0.3,0.3,0.5,0.4,0.8c0.1,0.2,0.2,0.4,0.3,0.6c0.1,0.3,0.3,0.5,0.4,0.8c0.1,0.2,0.2,0.4,0.3,0.6   c0.1,0.3,0.2,0.5,0.3,0.8c0.1,0.2,0.2,0.4,0.3,0.7c0.1,0.3,0.2,0.5,0.3,0.8c0.1,0.2,0.2,0.4,0.2,0.7c0.1,0.3,0.2,0.5,0.3,0.8   c0.1,0.2,0.1,0.4,0.2,0.7c0.1,0.3,0.2,0.5,0.2,0.8c0.1,0.2,0.1,0.4,0.2,0.7c0.1,0.3,0.1,0.6,0.2,0.9c0.1,0.2,0.1,0.4,0.2,0.7   c0.1,0.3,0.1,0.6,0.2,0.9c0,0.2,0.1,0.4,0.1,0.6c0.1,0.3,0.1,0.7,0.1,1c0,0.2,0.1,0.4,0.1,0.6c0.1,0.4,0.1,0.9,0.1,1.3   c0,0.1,0,0.2,0,0.2c0,0,0,0,0,0l-6.2,2.5c-0.2,0.1-0.3,0.2-0.3,0.4c0,0.2,0.1,0.4,0.3,0.4L87.5,52.7C87.5,52.7,87.5,52.7,87.5,52.7   z M52.3,47.4c-0.2,0-0.3,0-0.5,0c-0.5,0-1,0.2-1.5,0.5c-1.2,0.8-1.5,2.4-0.7,3.6c0.4,0.6,1,1,1.7,1.1c0.7,0.1,1.4,0,1.9-0.4   c0.6-0.4,1-1,1.1-1.7c0.1-0.7,0-1.4-0.4-1.9C53.5,47.9,52.9,47.5,52.3,47.4z" class="st0_1560738069166" vector-effect="non-scaling-stroke"/>
	<path d="M48.8,9.3V2h1.9l1.5,2.7c0.4,0.8,0.9,1.7,1.2,2.5h0c-0.1-1-0.1-1.9-0.1-3V2h1.5v7.3h-1.7l-1.6-2.8   c-0.4-0.8-0.9-1.7-1.3-2.6l0,0c0,1,0.1,2,0.1,3.2v2.2H48.8z" class="st0_1560738069166" vector-effect="non-scaling-stroke"/>
	<path d="M49.6,95.9c0.4,0.2,1.1,0.5,1.8,0.5c0.8,0,1.2-0.3,1.2-0.8c0-0.5-0.3-0.7-1.2-1c-1.2-0.4-2-1.1-2-2.1   c0-1.2,1-2.2,2.7-2.2c0.8,0,1.4,0.2,1.9,0.4l-0.4,1.3c-0.3-0.1-0.8-0.3-1.5-0.3c-0.7,0-1.1,0.3-1.1,0.7c0,0.5,0.4,0.7,1.3,1   c1.3,0.5,1.9,1.1,1.9,2.2c0,1.2-0.9,2.3-2.9,2.3c-0.8,0-1.6-0.2-2.1-0.4L49.6,95.9z" class="st0_1560738069166" vector-effect="non-scaling-stroke"/>
	<path d="M96.9,50.4h-2.7v1.7h3v1.3h-4.6v-7.3h4.5v1.3h-2.8v1.5h2.7V50.4z" class="st0_1560738069166" vector-effect="non-scaling-stroke"/>
	<path d="M4,53.5l-1.7-7.3H4l0.6,3C4.7,50.1,4.9,51,5,51.7h0c0.1-0.8,0.3-1.7,0.5-2.6l0.6-3h1.7l0.6,3.1   c0.2,0.9,0.3,1.6,0.4,2.4h0c0.1-0.8,0.3-1.7,0.4-2.5l0.6-3h1.7l-1.9,7.3H7.9l-0.6-3.1c-0.1-0.7-0.3-1.4-0.3-2.2h0   c-0.1,0.8-0.2,1.5-0.4,2.2l-0.7,3.1H4z" class="st0_1560738069166" vector-effect="non-scaling-stroke"/>
</g></g></svg>