<?xml version="1.0" encoding="utf-8"?>
<!-- Generator: Adobe Illustrator 23.0.4, SVG Export Plug-In . SVG Version: 6.00 Build 0)  -->
<svg version="1.1" xmlns="http://www.w3.org/2000/svg" xmlns:xlink="http://www.w3.org/1999/xlink" x="0px" y="0px"
	 viewBox="0 0 540.4 229.5" style="enable-background:new 0 0 540.4 229.5;" xml:space="preserve">
<style type="text/css">
	.st0{fill:#474442;}
	.st1{display:none;}
	.st2{display:inline;fill:#F8EC62;}
	.st3{display:inline;fill:#FFFFFF;}
</style>
<g id="layout">
	<path class="st0" d="M533.7,139.4c-3.2,1.8-5.5,5.5-7.6,8.5c-7.1,9.9-30.1,29-41.2,34.5c-8.3,3.9-24.1,10.3-26-4.4
		c-1.1-7.8-0.2-15.6,1.4-23.4c0.7,0.2,1.2,0.2,1.6,0c13.8-3.2,25.1-12.4,35.2-22.1c3-2.8,6-5.5,8.3-9c2.5-3.7,4.1-8,5.5-12.2
		c1.6-5.5,3-11.3,3-17c0-2.3,0-4.6-0.9-6.7c-0.9-1.8-2.3-3.2-3.7-4.6c-9.4-10.1-23.9-14.5-37.5-11.7c-6.7,1.4-13.1,4.6-18.4,9
		c-6.4,5.1-9.7,13.1-13.6,20c-1.6,2.5-3,4.8-4.1,7.4c-3.4,7.6-7.4,15.4-9,23.7c-1.5,7.6-1.9,15.4-1.1,23.1
		c-3,6.4-8.2,10.9-14.4,14.6c-2.4,1.3-20.4,11.2-21.7,7.1c0-0.8,0.3-1.6,0.3-2.4c2.9-7.8,5.5-15.7,8.1-23.3c1-3.4,2.9-6.3,3.9-9.7
		c1.6-3.7,2.6-7.3,3.9-11l1.8-5.5c1.8-6,4.2-12.8,0.3-19.1c-1-1.6-2.1-2.9-3.4-4.2c-1.8-1.6-3.4-3.1-5.5-4.2c-6.5-3.4-12-7.1-19.6-6
		c-3.9,0.5-7.1,3.7-10.2,5.8c-1.6,1-1.8,2.1-3.1,3.1c-1.3,1.3-2.9,2.1-4.2,2.9c-7.1,5.2-13.6,11.2-19.9,17.3l-4.4,4.7
		c-1.3,1.6-2.1,3.7-3.7,5c2.1-8.4,2.6-17,3.4-25.4c0-2.1,0.3-4.2-0.5-6.3c-1.3-3.7-5.2-5.8-8.6-7.3c-4.7-1.8-10.2-3.9-15.2-2.9
		c-5.2,0.8-9.7,3.9-13.9,6.8c-5,3.7-9.7,7.6-14.1,11.8c-4.7,4.4-8.4,9.7-13.1,14.1c-0.3-1.8,1.6-5,2.1-6.5c0.8-2.4,1.3-5,1.8-7.3
		c0.8-5,0.8-10.2,0.3-15.2c-0.5-4.4-3.4-6.8-6.8-9.2c-10.7-7.3-23.3-9.4-35.6-7.1c-2.1,0.5-4.2,1-6.3,1.8c-2.6,1.6-4.7,3.7-6.5,6
		c-7.1,9.4-10.7,20.9-14.1,32.2c-4.5,14.7-8.7,29.7-13,44.4c-1,1.9-2.1,3.7-3.1,5.6c0,0.3-0.3,0.3-0.3,0.5l-2.5,4.2
		c-2.8,4.4-6.2,8.6-9,13c-2.8,4.4-5.9,8.6-9.5,12.2c-2.5,2.3-5.2,3.6-8.4,3.7c-1.6-0.1-3.5-0.4-4.5-1.8c-0.5-0.6-0.8-1.4-1-1.9
		c-0.7-2.4-0.6-4.8-0.3-7.2c0.5-5.3,2-10.9,2.4-15.9c0.4-3.7,2.4-7.1,3.6-10.8c0.6-1.8,1.2-4,1.5-5.8c4.3-16.4,8.3-32.8,13.7-48.8
		l1.8-5.8c0.6-1.6,1.2-4.2,0.5-5.8c-1-2.7-4.1-5.5-5.6-7.4c-0.8-1.1-1.8-1.9-2.6-2.8c-2.8-2.5-6.5-3.4-10-4.3
		c-2.1-0.9-4-1.2-6.1-1.5c-2.1-0.3-4.3,0.1-6.1-0.2c-3.2-0.6-6.3-2.4-9.1,0.8c-1.4,1.3-2.3,3.4-2.8,5.2
		c-4.4,12.4-8.1,24.8-10.1,37.8c-1.6,7.9-1.6,15.9-2.7,23.9c-1.1,8.8,0.2,17.6,1.5,26.2l1.3,8c0.5,2,1.1,4.1,1.9,6.2
		c-6.5,7.1-13.5,13.6-21.4,19.4c-4.6,3.4-9.5,6.5-14.9,7.8C70.2,218.9,80,180.1,81.3,170c1.8-15.4,4.2-30.8,6-46.2
		c2.2-18.7,7.8-39.9,11.8-58.4l33.9,1.3c3.3,0.1,2.7-1.4,3.6-1.9c0.9-0.6,1.2-0.3,1.2-1.1c0-0.9,1.6-3.8-4.6-4l-32.7-1.3
		c0-0.6,0.4-2.1,0.4-2.7c2.3-13.3,4-27.5-0.8-41.4C89.2,12.9,78.3,2.7,68.1,5C61.5,6.5,58,12.9,54.8,19c-2.3,5.3-4.9,10.5-7.2,16.1
		c-2.9,6.7-5.3,13.8-7.4,20.8L5.8,54.6c-2.1-0.1-3.9,1.3-4.3,3.1c-0.4,2.4,4.3,4,9.7,4.2L38.5,63c-6.4,27.4-7.3,56.8-7.5,86
		c0.1,20.8,1.3,43.8,16.4,60.7c11.7,13.2,31.1,20,47.7,12c4.3-2.2,8.2-5,11.9-7.9c8.7-6.4,17.1-13.1,23.9-21.7
		c1.6,3,3.6,5.8,5.8,7.9c1.8,1.7,3.6,2.8,5.7,3.7c3.1,1.7,6.6,3.2,10,4.1c11.6,3.6,23.9-6.1,30.1-15.2l5-7c1.2-1.9,2.4-3.8,3.6-5.6
		c0.3,2.1,0.7,4.3,0.5,6.7c0,2.9-1,5.8-0.3,8.9c1,3.7,4.4,6.3,7.8,8.4c13.1,7.6,30.9,10.2,45.8,9.7c1,0,2.1,0,3.1-0.8
		c2.1-1.3,3.1-5.2,3.7-7.3c1-3.4,1.3-6.5,1.8-9.9c0.5-2.4,0.5-5,1-7.3c1.8-12,3.9-23.8,7.1-35.3c1.3-5.5,3.1-11,6-15.7
		c2.1-3.1,4.4-6,7.1-8.6c4.4-4.7,9.2-8.6,13.9-13.1c3.1-3.1,6.3-6.3,9.7-9.2c5.5-5,10.5-8.6,18.1-9.2c8.1-0.5,11.8,6,10.2,13.1
		c-2.4,9.2-5.5,17.8-7.3,26.9c-0.8,3.9-1.3,7.8-2.6,11.8c-2.4,6-6.3,11-8.6,17c-1.8,4.7-5.2,12.8-5,17.8c6,2.6,14.4,7.8,19.6,2.4
		c1-1.3,1.6-3.1,2.1-4.7l5-19.4c0.8-2.9,1.3-6.3,2.6-8.6l5-7.1l5.5-8.1c8.1-10.7,19.1-19.9,26.4-31.4c-4.4,7.3-5.2,16.5-7.8,24.6
		c-1,3.4-2.6,6.8-3.1,10.5c-1.8,9.2-0.3,20.4,5.8,28.5c2.4,3.4,4.4,6.5,7.8,9.2c3.4,2.6,7.6,4.4,11.8,5c4.2,0.8,9.4,0.8,13.6-0.3
		c4.7-1.3,9.4-3.1,13.6-5.8c0-0.3,0.3-0.3,0.5-0.3l5-3.7l5.5-4.2c2-1.5,4.3-3.3,5.8-5.3c0.1,0.4,0.2,0.8,0.3,1.3
		c1.4,4.8,3.2,10.3,5.7,14.7c3,4.6,9.9,8,14.7,10.6c3.4,2.1,7.1,3.7,11,4.4c3.7,0.7,7.4,0.2,11-0.2c20.9-3.2,51.5-28.7,62.8-46.2
		c0.9-1.4,1.8-3,2.1-4.6C535.8,142.8,534.9,141,533.7,139.4z M465.5,137.1c0.7-2.3,1.8-4.4,2.5-6.2c2.1-5.1,4.1-9.9,6.7-14.7
		c3.7-7.4,8.3-14.3,13.6-20.5c1.1-1.6,3.4-6.4,5.1-7.1c3.2-1.6,4.6,2.8,5.1,5.1c0.7,8.7-2.3,17.7-7.1,25.1
		c-4.8,7.6-11.3,13.8-17.7,19.8c-3.2,2.8-6.4,5.5-10.3,6.9C463.2,142.6,464.1,139.6,465.5,137.1z M157.4,55.7c0,0.5,0,0.8,0.2,1.3
		c0.3,0,0.3,0.3,0.5,0.3c4.5,2,9.8,2.2,14.1,0.5c4.6-2,8.2-5.6,10-10.3c1.7-3.9,1.6-8.7,1.5-13c-0.2-2.7-0.1-5.6-1.6-7.8
		c-2.3-3.5-6.8-4.8-11-4.6c-1.3,0.2-2.9,0.2-4.3,0.1c-1.6-0.1-3.4-0.7-5.1-0.2s-3,2-3.9,3.6c-2.6,4.4-3,9.5-3.7,14.5
		c-0.1,2.7-0.5,5.3,0.3,7.7C155.4,50.6,157.2,53.1,157.4,55.7z M418.1,52c-2.8,0-4.9,0.3-4.9-3.2v-8.2c0.7,0,1.4,0,2.1,0
		c0.9,0,1.7,0,2.6-0.1c1.4,1,2.6,2.3,3.8,3.6c1.8,1.9,3.6,3.8,5.4,5.6c3.3,3.2,6.7,4.1,11.3,4.1c0.6,0,1.2,0,1.8,0v-1.3
		c-4.5-0.6-6-1.6-9.3-4.9c-1.8-1.8-3.5-3.7-5.2-5.5c-1.1-1.1-2.2-2.3-3.4-3.1c3.3-1.3,5.8-3.9,5.8-7.4c0-7-7-8.6-12.5-8.6
		c-2.9,0-7.6,0.3-11.4,0.6v1.4c3.1,0,4.5-0.3,4.5,3.4v19.7c0,3.7-1.4,3.8-4.5,3.8v1.4h13.8V52z M413.2,25.1c1,0,2.1-0.1,3.1-0.1
		c4.3,0,6.9,2.2,6.9,6.8c0,5.9-3.5,7.2-8.9,7.2c-0.4,0-0.7,0-1.1,0V25.1z M348,54c10.7,0,16.9-7.9,16.9-16c0-8-6.5-14.8-16.6-14.8
		c-10.6,0-16.8,7.9-16.8,16C331.5,47.4,338.3,54,348,54z M347.8,25c5.8,0,12.3,5.2,12.3,14.3c0,7.8-4.6,12.9-11.3,12.9
		c-5.8,0-12.3-5.2-12.3-14.2C336.4,30.1,341,25,347.8,25z M371.6,27.7v14C371.6,51,378,54,385,54c8.9,0,13.5-5.3,13.5-11.9V28.9
		c0-2.4,1-3.8,3.5-3.8h0.7v-1.4h-11.5v1.4c3.1,0,4.5,0.8,4.5,3.7v12.8c0,5.7-3.5,9.5-10,9.5c-5.6,0-9.8-2.8-9.8-10V29
		c0-2.5,0.4-3.8,3.2-3.8h1.1v-1.4h-12.7v1.4C371,25.1,371.6,25.7,371.6,27.7z M261.3,24.5c0.3,0,0.6-0.1,0.9-0.1
		c0.2,0,0.4,0,0.4,0.6c0,1.5-1.2,2.9-3.6,4.6l0.4,1.4c3.7-1.4,5.7-4.6,5.7-7.3c0-2.8-1.9-4.3-3.7-4.3c-1.5,0-2.8,1.1-2.8,2.6
		C258.7,23.3,260,24.5,261.3,24.5z M306.8,29.1l8.5,13.5v5.9c0,2.7-0.7,3.6-3.8,3.6h-0.8v1.4h13.5V52h-1c-2.5,0-3.4-0.8-3.4-3v-7
		l7.6-13c1.4-2.4,3-3.9,5.7-3.9v-1.4h-10.7v1.4h0.8c1.6,0,2.2,0.4,2.2,1.2c0,0.7-0.4,1.3-0.7,1.9l-6.4,10.9l-7.1-11.3
		c-0.2-0.4-0.8-1.2-0.8-1.7c0-0.5,0.5-1,2.4-1h0.9v-1.4h-12.6v1.4h0.8C303.6,25.1,304.8,25.9,306.8,29.1z M224,52h-1.6
		c-1.6,0-2.6-1-2.6-3.1V28.3c0-2.1,1-3.1,2.6-3.1h1.6v-1.4h-12.9v1.4h1.6c1.6,0,2.6,1,2.6,3.1v20.6c0,2.1-1,3.1-2.6,3.1h-1.6v1.4
		H224V52z M231.3,25.9h7.2v22.9c0,2.7-0.8,3.2-5.2,3.2v1.4h15V52c-4.4,0-5.3-0.5-5.3-3.2V25.9h7.2c2.6,0,3.1,0.9,3.8,5.3h1.4
		l-0.8-8.2h-1.3c-0.3,0.5-0.5,0.7-1.4,0.7h-22.2c-0.9,0-1.1-0.2-1.4-0.7h-1.3l-0.7,8.2h1.4C228.3,26.9,228.8,25.9,231.3,25.9z
		 M279.2,52.3c-3.6,0-6.4-2.3-7.6-6.5h-1.3l1,7.3h1.2c0.1-0.3,0.1-0.3,0.3-0.3c0.2,0,0.5,0,1,0.2c2,0.6,3.5,1.1,5.8,1.1
		c5.7,0,9.3-4.2,9.3-8.2c0-1.9-0.9-4.2-2.8-6.1c-2.9-2.9-7-4.6-9.9-7.5c-1.1-1.1-1.6-2.3-1.6-3.5c0-2.1,1.9-3.9,4.7-3.9
		c2.7,0,5.6,1.8,6.8,5.4h1.3l-0.8-6.2h-1.2c-0.1,0.3-0.2,0.3-0.4,0.3c-0.5,0-1.6-0.4-2.1-0.6c-1-0.3-2.2-0.6-3.9-0.6
		c-4.6,0-8.3,2.9-8.3,7c0,5.5,6.3,8.5,10.3,11.3c1.9,1.4,4,3.1,4,5.7C285,50.3,282.2,52.3,279.2,52.3z"/>
</g>
<g id="YELLOW_EXTRA" class="st1">
	<path class="st2" d="M8577.9,535.4c0.4-0.2,0.8-0.4,1.3-0.5c-2.7-12.1-5.3-24.2-8-36.3c-0.6,0-1.2,0.1-1.7,0.1
		c-0.8,6.4-1.5,12.9-2.3,19.6C8574.9,520.7,8573.6,530,8577.9,535.4z"/>
	<path class="st2" d="M8564.7,558.6c0.6-0.2,1.1-0.5,1.7-0.7c-3.5-16-7-31.9-10.5-47.9c-0.8,0.1-1.5,0.1-2.3,0.2
		c-1,8.5-2,17-3.1,25.8C8560.7,539.2,8559,551.4,8564.7,558.6z"/>
	<path class="st2" d="M8589.6,447.8c-0.4,0.4-0.8,0.7-1.3,1.1c7.2,12.9,14.5,25.9,21.7,38.8c0.7-0.2,1.3-0.5,2-0.7
		c-1.4-7.6-2.7-15.2-4.1-23.2C8598.1,463.6,8596.4,452.5,8589.6,447.8z"/>
	<path class="st2" d="M8570.1,499.3c-0.4,0.4-0.8,0.7-1.3,1.1c7.2,12.9,14.5,25.9,21.7,38.8c0.7-0.2,1.3-0.5,2-0.7
		c-1.4-7.6-2.7-15.2-4.1-23.2C8578.7,515.1,8576.9,504,8570.1,499.3z"/>
	<path class="st2" d="M8599.6,427.5c-0.2,0.4-0.4,0.8-0.5,1.2c10.1,10.6,20.2,21.2,30.3,31.8c0.4-0.3,0.8-0.7,1.1-1
		c-3.8-6.7-7.7-13.4-11.7-20.4C8611.7,440.4,8606.3,430.7,8599.6,427.5z"/>
	<path class="st2" d="M8602.8,449.4c-0.2,0.4-0.4,0.8-0.5,1.2c10.1,10.6,20.2,21.2,30.3,31.8c0.4-0.3,0.8-0.7,1.1-1
		c-3.8-6.7-7.7-13.4-11.7-20.4C8615,462.3,8609.6,452.6,8602.8,449.4z"/>
	<path class="st2" d="M8588.4,481.3c-0.2,0.3-0.3,0.6-0.5,0.8c6.7,9.1,13.3,18.2,20,27.3c0.3-0.2,0.6-0.4,1-0.6
		c-2.3-5.5-4.5-11-6.9-16.7C8596.4,492.4,8593.3,484.4,8588.4,481.3z"/>
	<path class="st2" d="M8564.1,534.4c-0.2,0.3-0.3,0.6-0.5,0.8c6.7,9.1,13.3,18.2,20,27.3c0.3-0.2,0.6-0.4,1-0.6
		c-2.3-5.5-4.5-11-6.9-16.7C8572.1,545.5,8568.9,537.5,8564.1,534.4z"/>
	<path class="st2" d="M8544,561.8c-0.2,0.3-0.3,0.6-0.5,0.8c6.7,9.1,13.3,18.2,20,27.3c0.3-0.2,0.6-0.4,1-0.6
		c-2.3-5.5-4.5-11-6.9-16.7C8552,572.9,8548.8,564.9,8544,561.8z"/>
	<path class="st2" d="M8594.3,506.7c0.4-0.4,0.8-0.8,1.3-1.1c-8-13.1-16-26.2-24-39.2c-0.7,0.3-1.3,0.6-2,0.9
		c1.7,7.8,3.4,15.6,5.2,23.8C8584.8,490.7,8587,502.1,8594.3,506.7z"/>
	<path class="st2" d="M9788.5,535.4c0.4-0.2,0.8-0.4,1.3-0.5c-2.7-12.1-5.3-24.2-8-36.3c-0.6,0-1.2,0.1-1.7,0.1
		c-0.8,6.4-1.5,12.9-2.3,19.6C9785.4,520.7,9784.2,530,9788.5,535.4z"/>
	<path class="st2" d="M9775.3,558.6c0.6-0.2,1.1-0.5,1.7-0.7c-3.5-16-7-31.9-10.5-47.9c-0.8,0.1-1.5,0.1-2.3,0.2
		c-1,8.5-2,17-3.1,25.8C9771.3,539.2,9769.6,551.4,9775.3,558.6z"/>
	<path class="st2" d="M9800.1,447.8c-0.4,0.4-0.8,0.7-1.3,1.1c7.2,12.9,14.5,25.9,21.7,38.8c0.6-0.2,1.3-0.5,2-0.7
		c-1.4-7.6-2.7-15.2-4.1-23.2C9808.7,463.6,9807,452.5,9800.1,447.8z"/>
	<path class="st2" d="M9780.6,499.3c-0.4,0.4-0.8,0.7-1.3,1.1c7.2,12.9,14.5,25.9,21.7,38.8c0.6-0.2,1.3-0.5,2-0.7
		c-1.4-7.6-2.7-15.2-4.1-23.2C9789.2,515.1,9787.5,504,9780.6,499.3z"/>
	<path class="st2" d="M9810.1,427.5c-0.2,0.4-0.4,0.8-0.5,1.2c10.1,10.6,20.2,21.2,30.3,31.8c0.4-0.3,0.8-0.7,1.1-1
		c-3.8-6.7-7.7-13.4-11.6-20.4C9822.3,440.4,9816.9,430.7,9810.1,427.5z"/>
	<path class="st2" d="M9813.4,449.4c-0.2,0.4-0.4,0.8-0.5,1.2c10.1,10.6,20.2,21.2,30.3,31.8c0.4-0.3,0.8-0.7,1.1-1
		c-3.8-6.7-7.7-13.4-11.6-20.4C9825.5,462.3,9820.1,452.6,9813.4,449.4z"/>
	<path class="st2" d="M9799,481.3c-0.2,0.3-0.3,0.6-0.5,0.8c6.7,9.1,13.3,18.2,20,27.3c0.3-0.2,0.6-0.4,1-0.6
		c-2.3-5.5-4.5-11-6.9-16.7C9807,492.4,9803.8,484.4,9799,481.3z"/>
	<path class="st2" d="M9774.6,534.4c-0.2,0.3-0.3,0.6-0.5,0.8c6.7,9.1,13.3,18.2,20,27.3c0.3-0.2,0.6-0.4,1-0.6
		c-2.3-5.5-4.5-11-6.9-16.7C9782.6,545.5,9779.5,537.5,9774.6,534.4z"/>
	<path class="st2" d="M9754.6,561.8c-0.2,0.3-0.3,0.6-0.5,0.8c6.7,9.1,13.3,18.2,20,27.3c0.3-0.2,0.6-0.4,1-0.6
		c-2.3-5.5-4.5-11-6.9-16.7C9762.5,572.9,9759.4,564.9,9754.6,561.8z"/>
	<path class="st2" d="M9804.8,506.7c0.4-0.4,0.8-0.8,1.3-1.1c-8-13.1-16-26.2-24-39.2c-0.7,0.3-1.3,0.6-2,0.9
		c1.7,7.8,3.4,15.6,5.2,23.8C9795.4,490.7,9797.6,502.1,9804.8,506.7z"/>
	<path class="st3" d="M9524.9,563.8c-6.1-12.4-11.6-23.5-17.1-34.5c-0.6,0-1.2,0.1-1.8,0.1c0,2.3-0.6,4.9,0.1,7
		C9509.7,546.7,9512.5,557.8,9524.9,563.8z"/>
	<path class="st3" d="M9543.1,572.7c-6.1-12.4-11.6-23.5-17.2-34.5c-0.6,0-1.2,0.1-1.8,0.1c0,2.3-0.6,4.9,0.1,7
		C9528,555.7,9530.7,566.7,9543.1,572.7z"/>
	<path class="st3" d="M9561.8,551.7c-9.9-17.4-18.9-33-27.8-48.6c-0.8,0.1-1.7,0.2-2.5,0.4c0.2,3.4-0.4,7.2,0.9,10.2
		C9538.6,528.3,9543.6,544.1,9561.8,551.7z"/>
	<path class="st3" d="M9571.6,521.9c-9.3-13.5-17.6-25.5-26-37.6c-0.6,0.2-1.3,0.3-1.9,0.5c0.5,2.8,0.3,5.9,1.5,8.2
		C9551.4,504.6,9556.7,517.1,9571.6,521.9z"/>
	<path class="st3" d="M9577.2,496.4c-8.4-14-15.9-26.6-23.4-39.2c-0.6,0.1-1.3,0.2-1.9,0.4c0.3,2.8-0.1,5.9,1,8.3
		C9558.2,477.8,9562.7,490.6,9577.2,496.4z"/>
	<path class="st3" d="M9600,486.8c-11.1-10-21-18.9-30.9-27.8c-0.5,0.3-1,0.6-1.5,0.8c1,2.3,1.6,5.2,3.2,7
		C9578.7,475.7,9586.1,485.7,9600,486.8z"/>
	<path class="st3" d="M9599.6,460.4c-11.1-10-21-18.9-30.9-27.8c-0.5,0.3-1,0.6-1.5,0.8c1,2.3,1.6,5.2,3.2,7
		C9578.3,449.4,9585.7,459.3,9599.6,460.4z"/>
	<path class="st3" d="M9616.1,446.1c-13.4-6.6-25.3-12.4-37.3-18.3c-0.4,0.4-0.8,0.8-1.2,1.2c1.6,2,3,4.5,5,5.8
		C9592.5,441.3,9602.4,448.8,9616.1,446.1z"/>
	<path class="st3" d="M9622.4,396.2c-12.6,2-23.8,3.8-35.1,5.6c-0.1,0.5-0.3,1.1-0.4,1.6c2,0.7,4,2,6.1,1.9
		C9603,405,9613.4,405.7,9622.4,396.2z"/>
	<path class="st3" d="M9623.7,381.6c-12.6,2-23.8,3.8-35.1,5.6c-0.1,0.5-0.3,1.1-0.4,1.6c2,0.7,4,2,6.1,1.9
		C9604.3,390.4,9614.6,391.1,9623.7,381.6z"/>
	<path class="st3" d="M9616.6,388.7c-12.6,2-23.8,3.8-35.1,5.6c-0.1,0.5-0.3,1.1-0.4,1.6c2,0.7,4,2,6.1,1.9
		C9597.2,397.5,9607.5,398.2,9616.6,388.7z"/>
	<path class="st3" d="M9621.6,429.4c-12.7-1.1-24-2.1-35.4-3.1c-0.3,0.5-0.5,1-0.8,1.5c1.8,1.1,3.4,2.9,5.4,3.3
		C9600.6,433.3,9610.5,436.5,9621.6,429.4z"/>
	<path class="st3" d="M9518.4,580.9c-6.1-12.4-11.6-23.5-17.1-34.5c-0.6,0-1.2,0.1-1.8,0.1c0,2.3-0.6,4.9,0.1,7
		C9503.2,563.8,9506,574.8,9518.4,580.9z"/>
	<path class="st3" d="M9500,548.7c2.1-0.6,3.9-2.5,5.8-3.8c-0.3-0.5-0.6-1-0.9-1.5c-12.3,1.7-24.5,3.4-38.2,5.3
		C9478.7,555.5,9489.4,551.5,9500,548.7z"/>
	<path class="st3" d="M9482.3,538.7c2.1-0.6,3.9-2.5,5.8-3.8c-0.3-0.5-0.6-1-0.9-1.5c-12.3,1.7-24.5,3.4-38.2,5.3
		C9461.1,545.4,9471.7,541.5,9482.3,538.7z"/>
	<path class="st3" d="M9504,514.1c3.1-0.6,5.9-3.3,8.9-5c-0.4-0.7-0.7-1.5-1.1-2.2c-17.9,1.4-35.8,2.8-55.8,4.4
		C9472.5,522,9488.4,517.3,9504,514.1z"/>
	<path class="st3" d="M9513.7,491.9c2.6-0.3,5.1-2.2,7.7-3.4c-0.2-0.6-0.5-1.2-0.7-1.9c-14.7-0.1-29.3-0.2-45.7-0.3
		C9487.4,496,9500.8,493.4,9513.7,491.9z"/>
	<path class="st3" d="M9531.9,470.3c2.6-0.5,5-2.5,7.4-3.9c-0.3-0.6-0.5-1.2-0.8-1.8c-14.6,0.9-29.3,1.7-45.6,2.7
		C9505.9,476.2,9519,472.6,9531.9,470.3z"/>
	<path class="st3" d="M9521,456c2.4,0.3,5-0.8,7.6-1.3c-0.1-0.6-0.1-1.2-0.2-1.7c-13-3.2-25.9-6.4-40.4-9.9
		C9496.8,454,9509.2,454.5,9521,456z"/>
	<path class="st3" d="M9543,441.5c2.4,0.3,5-0.8,7.6-1.3c-0.1-0.6-0.1-1.2-0.2-1.7c-13-3.2-25.9-6.4-40.4-9.9
		C9518.8,439.5,9531.2,440,9543,441.5z"/>
	<path class="st3" d="M9540.8,428.4c2.2,0.9,5.1,0.6,7.6,0.8c0.1-0.6,0.2-1.1,0.3-1.7c-11.6-6.6-23.2-13.2-36.2-20.5
		C9518,419.8,9529.8,423.7,9540.8,428.4z"/>
	<path class="st3" d="M9559.3,403.1c1.1,1.7,3.3,2.6,5,3.9c0.4-0.4,0.7-0.9,1.1-1.3c-4.9-10.3-9.7-20.6-15.2-32.1
		C9547.5,386.4,9553.9,394.6,9559.3,403.1z"/>
	<path class="st3" d="M9570.6,393.8c1.1,1.7,3.3,2.6,5,3.9c0.4-0.4,0.7-0.9,1.1-1.3c-4.9-10.3-9.7-20.6-15.2-32.1
		C9558.8,377.2,9565.2,385.4,9570.6,393.8z"/>
	<path class="st3" d="M9568.8,403.7c1.1,1.7,3.3,2.6,5,3.9c0.4-0.4,0.7-0.9,1.1-1.3c-4.9-10.3-9.7-20.6-15.2-32.1
		C9557,387,9563.4,395.2,9568.8,403.7z"/>
	<path class="st3" d="M9539.1,419.4c1.5,1.4,3.8,1.8,5.8,2.6c0.3-0.5,0.5-1,0.8-1.5c-7.2-8.8-14.4-17.7-22.5-27.5
		C9523.7,406.1,9531.9,412.5,9539.1,419.4z"/>
	<path class="st3" d="M9489.6,563.7c2.1-0.6,3.9-2.5,5.8-3.8c-0.3-0.5-0.6-1-0.9-1.5c-12.3,1.7-24.5,3.4-38.2,5.3
		C9468.3,570.4,9479,566.5,9489.6,563.7z"/>
</g>
</svg>
