<svg version="1.2" xmlns="http://www.w3.org/2000/svg" xmlns:xlink="http://www.w3.org/1999/xlink" overflow="visible" preserveAspectRatio="none" viewBox="0 0 165.6999969482422 69.5999984741211" xml:space="preserve" y="0px" x="0px" id="Layer_1_1560472455163" width="120" height="49"><g transform="translate(1, 1)"><path d="M6.8,16.3v17.4C6.8,37,7,39.6,7.6,42H3.2c-0.7-2.1-1.1-4.5-1.1-8.3V16.3H0V12h2.5V7.2l4.3-1.5V12h2.5v4.3H6.8z" vector-effect="non-scaling-stroke" style="fill: rgb(151, 140, 135);"/><path d="M20.2,42V18.1c0-1.3-0.7-2.2-1.8-2.2c-1.1,0-1.9,1.3-1.9,2.6V42h-4.6V0.1h4.6v14.5c0.8-2,2.3-3.2,4-3.2  c2.6,0,4.2,2.4,4.2,5.8V42H20.2z" vector-effect="non-scaling-stroke" style="fill: rgb(151, 140, 135);"/><path d="M34.6,42.5c-3.6,0-6.3-3-6.3-7.6V19.1c0-4.5,2.7-7.7,6.3-7.7c3.6,0,6,3.1,6,7.7v8.7h-7.8v7.8c0,1.4,0.6,2.4,1.9,2.4  c1.3,0,1.8-1,1.8-2.4v-4.4h4.1V35C40.7,39.5,38.3,42.5,34.6,42.5 M36.5,18.4c0-1.4-0.5-2.5-1.8-2.5c-1.3,0-1.9,1-1.9,2.5v6h3.6V18.4  z" vector-effect="non-scaling-stroke" style="fill: rgb(151, 140, 135);"/><path d="M53.9,42.5c-3.6,0-6.3-3-6.3-7.6V19.1c0-4.7,2.7-7.7,6.3-7.7c3.6,0,6.3,3.1,6.3,7.7v15.8C60.2,39.5,57.5,42.5,53.9,42.5   M55.7,18.2c0-1.3-0.7-2.3-1.8-2.3c-1.1,0-1.8,0.9-1.8,2.3v17.5c0,1.3,0.6,2.2,1.8,2.2c1.1,0,1.8-0.9,1.8-2.2V18.2z" vector-effect="non-scaling-stroke" style="fill: rgb(151, 140, 135);"/><path d="M68.5,20.4V42h-4.6V11.8H68l0.3,3.5c0.8-2.8,2.6-4,5-3.8V17C69.8,16.8,68.5,17.9,68.5,20.4" vector-effect="non-scaling-stroke" style="fill: rgb(151, 140, 135);"/><path d="M81.7,42.5c-3.6,0-6.2-3-6.2-7.6V19.1c0-4.6,2.6-7.7,6.2-7.7c3.8,0,6,3.1,6,7.7v3.8h-3.8v-4.5c0-1.4-0.8-2.3-1.9-2.3  c-1.1,0-1.9,0.9-1.9,2.4v17.2c0,1.5,0.8,2.4,1.9,2.4c1.2,0,1.9-0.9,1.9-2.3v-4.5h3.8v3.7C87.7,39.5,85.5,42.5,81.7,42.5" vector-effect="non-scaling-stroke" style="fill: rgb(151, 140, 135);"/><path d="M99.2,42V18.1c0-1.3-0.7-2.2-1.8-2.2c-1.1,0-1.9,1.3-1.9,2.6V42H91V0.1h4.6v14.5c0.8-2,2.3-3.2,4-3.2c2.6,0,4.2,2.4,4.2,5.8  V42H99.2z" vector-effect="non-scaling-stroke" style="fill: rgb(151, 140, 135);"/><path d="M119.1,42.5c-1.5,0-2.7-0.9-3.3-2.8c-0.8,1.8-2.4,2.8-4.1,2.8c-3,0-4.9-2.6-4.9-7v-1.9c0-5.1,3.5-8,8-10.4v-5  c0-1.4-0.4-2.2-1.6-2.2c-1.2,0-1.6,0.8-1.6,2.3v3.1h-4.1v-2.9c0-4.1,2.1-7.1,5.9-7.1c3.8,0,5.8,3,5.8,7.3v18.7c0,0.8,0.3,1.3,1,1.4  v3.7H119.1z M114.8,27.5c-2.3,1.2-3.6,3.1-3.6,5.3v3c0,1.4,0.4,2.5,1.6,2.5c1.2,0,1.9-1.3,1.9-2.8V27.5z" vector-effect="non-scaling-stroke" style="fill: rgb(151, 140, 135);"/><path d="M127.9,20.4V42h-4.6V11.8h4.1l0.3,3.5c0.8-2.8,2.6-4,5-3.8V17C129.2,16.8,127.9,17.9,127.9,20.4" vector-effect="non-scaling-stroke" style="fill: rgb(151, 140, 135);"/><path d="M144,42l-0.4-2.5c-0.8,2.1-2.3,3-4,3c-2.9,0-4.6-2.5-4.6-6V17.4c0-3.5,1.8-6,4.4-6c1.6,0,2.8,0.9,3.8,2.5V0.1h4.5V42H144z   M143.3,18.2c0-1.4-0.8-2.3-1.8-2.3c-1.1,0-1.8,0.9-1.8,2.4v17.4c0,1.4,0.7,2.4,1.8,2.4c1,0,1.8-0.9,1.8-2.4V18.2z" vector-effect="non-scaling-stroke" style="fill: rgb(151, 140, 135);"/><path d="M157.3,42.5c-4,0-6.3-2.8-6.3-7.5v-2.3h4v2.9c0,1.7,0.6,2.6,2,2.6c1.4,0,2.1-0.8,2.1-2.5c0-2.8-0.8-3.9-3.6-7.5  c-2.3-2.5-4.4-5.5-4.4-9.3c0-4.7,2.6-7.5,6-7.5c4.1,0,6,3.1,6,7.4v2.5h-3.8v-3.1c0-1.3-0.8-2.3-2.1-2.3c-1.2,0-1.9,0.9-1.9,2.3  c0,2.4,1.1,4,3.4,6.9c2.5,2.7,4.6,5.5,4.6,9.7C163.4,39.3,161.2,42.5,157.3,42.5" vector-effect="non-scaling-stroke" style="fill: rgb(151, 140, 135);"/><path d="M75.3,53.1h0.4c0.1,0.1,0.1,0.2,0.3,0.2c0.1,0,0.4,0.1,0.8,0.1h7c0.8,0,1,0,1.1-0.3h0.4l0.3,2.9h-0.5  c-0.2-1.7-0.6-1.8-1.6-1.8h-2.4V62c0,1.1,0.2,1.3,1.9,1.3v0.4h-5.7v-0.4c1.7,0,1.9-0.2,1.9-1.3v-7.8h-2.4c-1,0-1.3,0.1-1.6,1.8H75  L75.3,53.1z" vector-effect="non-scaling-stroke" style="fill: rgb(151, 140, 135);"/><path d="M90.8,62.1c-0.8,1.2-1.9,1.8-3.4,1.8c-2.3,0-3.1-1.8-3.1-3.3c0-2.2,1.4-3.7,3.4-3.7c0.9,0,1.6,0.3,2.1,0.7  c0.8,0.8,0.5,1.5,1,1.8v0.5h-5c0,1.8,1,3.1,2.5,3.1c0.7,0,1.4-0.4,2.1-1.2L90.8,62.1z M89,59.4c-0.1-1.4-0.6-2.1-1.5-2.1  c-0.9,0-1.4,0.7-1.6,2.1H89z" vector-effect="non-scaling-stroke" style="fill: rgb(151, 140, 135);"/><path d="M91.6,57.6l2.2-0.7h0.4v1.3c1.4-0.9,2.3-1.3,3.1-1.3c0.8,0,1.3,0.4,1.5,1.4c1.4-0.9,2.4-1.4,3.1-1.4c1.1,0,1.7,0.8,1.7,2.3  V62c0,0.8,0.1,1.3,1.1,1.3v0.4h-3.7v-0.4c0.7,0,1.1-0.2,1.1-1.2v-2.9c0-0.7-0.3-1.4-1-1.4c-0.5,0-1.3,0.3-2.1,0.9V62  c0,1,0.3,1.3,1.1,1.3v0.4h-3.8v-0.4c0.7,0,1.1-0.2,1.1-1.2v-2.8c0-0.8-0.1-1.5-1-1.5c-0.6,0-1.2,0.3-2.1,0.9V62c0,1,0.3,1.3,1.1,1.3  v0.4h-3.7v-0.4c0.8,0,1.1-0.4,1.1-1.2v-2.9c0-0.9,0-1-1.1-1.1V57.6z" vector-effect="non-scaling-stroke" style="fill: rgb(151, 140, 135);"/><path d="M105,57.6l2.2-1h0.4v1.4c1.2-0.8,2.1-1.1,2.7-1.1c1.5,0,2.5,1.4,2.5,3c0,2.4-2.2,3.9-3.9,3.9c-0.4,0-0.7-0.1-1.3-0.2v2.2  c0,1.2,0.2,1.3,1.5,1.3v0.4h-4.3v-0.4c0.9,0,1.3-0.3,1.3-1.3v-7c0-0.6-0.1-0.7-1-0.8V57.6z M107.5,62.3c0.5,0.6,1.2,0.9,1.8,0.9  c0.9,0,1.8-0.9,1.8-2.4c0-2-1.1-2.9-2-2.9c-0.4,0-0.9,0.2-1.6,0.6V62.3z" vector-effect="non-scaling-stroke" style="fill: rgb(151, 140, 135);"/><path d="M113.4,53.3l2.4-0.7h0.5v9.5c0,0.9,0.2,1.2,1.3,1.2v0.4h-4.1v-0.4c1,0,1.3-0.3,1.3-1.3v-7.2c0-0.8-0.1-0.9-1.3-1V53.3z" vector-effect="non-scaling-stroke" style="fill: rgb(151, 140, 135);"/><path d="M124.7,62.1c-0.8,1.2-1.9,1.8-3.4,1.8c-2.3,0-3.1-1.8-3.1-3.3c0-2.2,1.4-3.7,3.4-3.7c0.9,0,1.6,0.3,2.1,0.7  c0.8,0.8,0.5,1.5,1,1.8v0.5h-5c0,1.8,1,3.1,2.5,3.1c0.7,0,1.4-0.4,2.1-1.2L124.7,62.1z M122.9,59.4c-0.1-1.4-0.6-2.1-1.5-2.1  c-0.9,0-1.4,0.7-1.6,2.1H122.9z" vector-effect="non-scaling-stroke" style="fill: rgb(151, 140, 135);"/><path d="M126,61.8h0.4c0.2,1,0.9,1.6,1.7,1.6c0.6,0,1-0.4,1-0.9c0-1.3-3-2-3-3.8c0-1.1,1-1.9,2.3-1.9c0.4,0,0.9,0.1,1.5,0.2v1.8  h-0.4c-0.2-1-0.7-1.5-1.4-1.5c-0.5,0-0.9,0.3-0.9,0.8c0,1.3,3.1,1.8,3.1,3.8c0,1.1-1,1.9-2.3,1.9c-0.3,0-0.5,0-0.7-0.1  c-0.2,0-0.3-0.1-0.4-0.1c-0.1,0-0.3,0.1-0.3,0.1h-0.3L126,61.8z" vector-effect="non-scaling-stroke" style="fill: rgb(151, 140, 135);"/><path d="M136,62.5c-0.5,1.1-1.3,1.4-2.1,1.4c-1.1,0-1.9-0.7-1.9-2.2v-3.8h-0.7v-0.3c1-0.5,1.6-1.3,1.9-2.4h0.4v1.9h2.4l-0.4,0.9h-2  v3.6c0,0.8,0.2,1.5,1,1.5c0.5,0,0.7-0.2,1.1-0.8L136,62.5z" vector-effect="non-scaling-stroke" style="fill: rgb(151, 140, 135);"/><path d="M140.4,56.9c2.8,0,3.8,2,3.8,3.5c0,2-1.6,3.5-3.8,3.5c-2.4,0-3.8-1.4-3.8-3.6C136.6,58.2,138.1,56.9,140.4,56.9 M140.7,63.4  c1.1,0,1.8-0.9,1.8-2.5c0-2-1.1-3.5-2.4-3.5c-1.1,0-1.9,1-1.9,2.5C138.3,61.8,139.4,63.4,140.7,63.4" vector-effect="non-scaling-stroke" style="fill: rgb(151, 140, 135);"/><path d="M152.5,63.9l-1.9-4.6l-2,4.6h-0.7l-2.1-5.1c-0.5-1.2-0.8-1.3-1.5-1.3v-0.4h3.7v0.4c-0.6,0-0.9,0.2-0.9,0.4  c0,0.1,0,0.3,0.1,0.4l1.5,3.7l1.5-3.5c-0.4-0.9-0.7-1.1-1.5-1.1v-0.4h3.9v0.4c-0.6,0-0.9,0.1-0.9,0.5c0,0.2,0.1,0.4,0.2,0.8l1.3,3.2  l1.2-3c0.2-0.5,0.3-0.7,0.3-1c0-0.4-0.3-0.5-1.1-0.6v-0.4h3v0.4c-0.8,0-1,0.2-1.6,1.7l-2,4.7H152.5z" vector-effect="non-scaling-stroke" style="fill: rgb(151, 140, 135);"/><path d="M163.2,62.1c-0.8,1.2-1.9,1.8-3.4,1.8c-2.3,0-3.1-1.8-3.1-3.3c0-2.2,1.4-3.7,3.4-3.7c0.9,0,1.6,0.3,2.1,0.7  c0.8,0.8,0.5,1.5,1,1.8v0.5h-5c0,1.8,1,3.1,2.5,3.1c0.7,0,1.4-0.4,2.1-1.2L163.2,62.1z M161.4,59.4c-0.1-1.4-0.6-2.1-1.5-2.1  c-0.9,0-1.4,0.7-1.6,2.1H161.4z" vector-effect="non-scaling-stroke" style="fill: rgb(151, 140, 135);"/></g></svg>