<svg version="1.2" xmlns="http://www.w3.org/2000/svg" xmlns:xlink="http://www.w3.org/1999/xlink" overflow="visible" preserveAspectRatio="none" viewBox="0 0 102 52" xml:space="preserve" y="0px" x="0px" id="Layer_1_1560490784838" width="38" height="20"><g transform="translate(1, 1)"><path d="M81.2,33.8c-1,0-1.9,0.9-1.9,1.9s0.9,1.9,1.9,1.9s1.9-0.9,1.9-1.9S82.2,33.8,81.2,33.8z M95.9,27.4c0,0-1.2-3.5-3.6-6.2  l-0.1-0.1c-0.4-0.3-3.8-3-15.3-5.2c-0.2,0-1.1-0.3-2-0.8L60.8,7.2c-0.2-0.1-4.7-2.7-12.6-3c-0.2,0-5.5-0.4-12.7-0.4c-1,0-2,0-3.1,0  c-2.6,0-5.1,0.1-7.4,0.3c-4.9,0.3-9.3,0.8-13.1,1.6L9.8,6.1l1.3,1.7c0.1,0.1,0.1,0.3,0,0.4c-2,1.9-5.5,6.4-5.6,15  c0,0.1-0.1,0.2-0.2,0.2c-0.7,0.4-1.9,1.3-2,3.6c-0.2,1.2-0.8,7.6,2.6,10.2C6,37.2,6,37.3,6,37.4c0.8,5.1,5.2,8.8,10.3,8.8  c4.2,0,9-3,10.6-6.7c0-0.1,0.1-0.2,0.3-0.2h44c0.1,0,0.2,0.1,0.3,0.2c1.5,3.3,5,6.7,9.6,6.7c4.4,0,8.4-2.8,9.9-7  c0-0.1,0.1-0.1,0.2-0.2l4.8-1.9l0.2-0.6c0.1-0.3,0.7-2.2,0.6-4.5v-2.4L95.9,27.4z M44.4,6.6c0-0.1,0-0.2,0.1-0.2  c0.1-0.1,0.1-0.1,0.2-0.1l0,0c0.9,0,1.5,0,2,0c0.7,0,0.9,0,1,0h0.1c7.7,0,15.7,4.5,18.7,6.2l0.3,0.2c0.1,0.1,0.2,0.2,0.1,0.3  c-0.1,0.1-0.1,0.2-0.3,0.2H44.7c-0.2,0-0.3-0.1-0.3-0.3C44.4,12.9,44.4,6.6,44.4,6.6z M19.2,6.8c0-0.2,0.1-0.3,0.3-0.3  c0.2,0,16.1-0.1,20.7-0.1c0.7,0,1.1,0,1.2,0c0.2,0,0.3,0.1,0.3,0.3v6.2c0,0.2-0.1,0.3-0.3,0.3H19.5c-0.2,0-0.3-0.1-0.3-0.3  C19.2,12.9,19.2,6.8,19.2,6.8z M16.4,43.6c-4.4,0-7.9-3.6-7.9-7.9s3.6-7.9,7.9-7.9c4.4,0,7.9,3.6,7.9,7.9S20.8,43.6,16.4,43.6z   M81.2,43.6c-4.4,0-7.9-3.6-7.9-7.9s3.6-7.9,7.9-7.9s7.9,3.6,7.9,7.9S85.5,43.6,81.2,43.6z M94.2,32.1c0,1.2-0.1,2.3-0.3,2.9  c0,0.1-0.1,0.2-0.2,0.2L92,35.9h-0.1c-0.1,0-0.1,0-0.2,0c-0.1-0.1-0.1-0.1-0.1-0.2c0-5.7-4.7-10.4-10.5-10.4S70.6,30,70.6,35.8  c0,0.6-0.7,1-0.8,1h-0.1H27.2c-0.1,0-0.2,0-0.2-0.1c-0.1-0.1-0.1-0.1-0.1-0.2c0-0.2,0-0.3,0-0.4c0-0.1,0-0.2,0-0.4  c0-5.8-4.7-10.5-10.5-10.5c-4.3,0-8.3,2.7-9.8,6.8c0,0.1-0.1,0.2-0.3,0.2l0,0c-0.1,0-0.2-0.1-0.3-0.2c-0.3-1.8-0.3-3.7-0.1-4.7  c0.1-0.9,0.4-1.5,0.9-1.6h1.3v-1.3C7.9,13.8,13.9,8.7,16.3,8.5l0,0c0.1,0,0.1,0,0.2,0.1s0.1,0.1,0.1,0.2c0,0.2,0,4.2,0,7.1  c2.7,0,24.4,0,39.7,0c9.5,0,14.5,0,15.1,0c1.5,0.1,3.6,1.6,4.6,2.4c0.2,0.2,0.4,0.3,0.4,0.3c9.9,1.9,13.5,4.2,14.1,4.6  c1.9,2.1,2.9,4.9,3,5.2l0.7,1.8v0.1V32.1z M16.4,33.8c-1,0-1.9,0.9-1.9,1.9s0.9,1.9,1.9,1.9s1.9-0.9,1.9-1.9S17.5,33.8,16.4,33.8z" vector-effect="non-scaling-stroke" style="fill: rgb(255, 255, 255);"/></g></svg>