<svg version="1.2" xmlns="http://www.w3.org/2000/svg" xmlns:xlink="http://www.w3.org/1999/xlink" overflow="visible" preserveAspectRatio="none" viewBox="0 0 102 102" xml:space="preserve" y="0px" x="0px" id="Layer_1_1560490645462" width="25" height="25"><g transform="translate(1, 1)"><path d="M90.5,56.9L84,36.6v-21c0-0.8-0.8-1.9-1.9-1.9H17c-1.1,0-1.9,1.1-1.9,1.9v21L8.6,56.9c-0.1,0.3-0.1,0.5-0.1,0.8v26.7  c0,1.1,0.8,1.9,1.9,1.9s1.9-0.8,1.9-1.9v-6.5h74.4v6.5c0,1.1,0.8,1.9,1.9,1.9s1.9-0.8,1.9-1.9V57.7C90.5,57.4,90.5,57.1,90.5,56.9z   M18.9,17.5h61.4v9.3c-1.6-1.2-3.5-1.9-5.5-1.9H57.1c-3.1,0-5.8,1.5-7.4,3.8c-1.8-2.3-4.5-3.8-7.4-3.8H24.4c-2.2,0-4,0.7-5.5,1.9  V17.5z M80.2,34.2v0.9H51.4v-0.9c0-3.1,2.4-5.5,5.5-5.5h17.7C77.8,28.6,80.2,31.1,80.2,34.2z M18.9,34.2c0-3.1,2.4-5.5,5.5-5.5h17.7  c3.1,0,5.5,2.4,5.5,5.5v0.9H18.9V34.2z M18.3,38.8h62.4l5.4,16.7H13.1L18.3,38.8z M86.9,74.3H12.4V59.4h74.4V74.3z" vector-effect="non-scaling-stroke" style="fill: rgb(255, 255, 255);"/></g></svg>