<svg version="1.2" xmlns="http://www.w3.org/2000/svg" xmlns:xlink="http://www.w3.org/1999/xlink" overflow="visible" preserveAspectRatio="none" viewBox="0 0 102 102" xml:space="preserve" y="0px" x="0px" id="Layer_1_1560490599446" width="25" height="25"><g transform="translate(1, 1)"><style type="text/css">
	.st0_1560490599446{fill-rule:evenodd;clip-rule:evenodd;}
</style><g>
	<g transform="translate(50 50) scale(0.69 0.69) rotate(0) translate(-50 -50)">
		fullsize
		<desc>Created with Sketch.</desc>
		<g>
			<g>
				<path d="M73.5-9.4v5.9h25.4L67.6,27.7l4.2,4.2l31.3-31.3v25.7h5.9V-9.4H73.5z M-9.4-9.4v35.7h6V0.6l31.3,31.3      l4.2-4.2L0.9-3.5h25.4v-5.9H-9.4z M67.9,72.1l31.2,31.2H73.7v5.9h35.7V73.5h-6v25.7L72.1,67.9L67.9,72.1z M-3.5,99.2V73.5h-6      v35.7h35.7v-5.9H0.9l31.2-31.2l-4.2-4.2L-3.5,99.2z" class="st0_1560490599446" vector-effect="non-scaling-stroke" style="fill: rgb(255, 255, 255);"/>
			</g>
		</g>
	</g>
</g></g></svg>