<svg version="1.2" xmlns="http://www.w3.org/2000/svg" xmlns:xlink="http://www.w3.org/1999/xlink" overflow="visible" preserveAspectRatio="none" viewBox="0 0 102 102" xml:space="preserve" y="0px" x="0px" id="Layer_1_1560490700656" width="24" height="24"><g transform="translate(1, 1)"><path d="M90.1,51.6h-5.7V18c0-6.4-5.2-11.4-11.4-11.4c-6.4,0-11.4,5.2-11.4,11.4v3.8h-1.9c-1.1,0-1.9,0.8-1.9,1.9  c0,1.1,0.8,1.9,1.9,1.9h7.7c1.1,0,1.9-0.8,1.9-1.9c0-1.1-0.8-1.9-1.9-1.9h-2.1V18c0-4.2,3.4-7.7,7.7-7.7c4.2,0,7.7,3.4,7.7,7.7v33.6  H9.9c-1.1,0-1.9,0.8-1.9,1.9s0.8,1.9,1.9,1.9h2.3l6.2,27.9C19.1,89,24,93.4,29.8,93.4h40.1c5.8,0,10.7-4.2,11.4-10.1l6.5-28h2.3  c1.1,0,1.9-0.8,1.9-1.9C91.9,52.4,91.1,51.6,90.1,51.6z M77.7,82.9c-0.4,3.8-3.7,6.9-7.7,6.8H30c-4,0-7.3-3.1-7.7-7l-6.1-27.3h67.6  L77.7,82.9z M61.7,34.3c0.8,0,1.3-0.5,1.3-1.3v-3.3c0-0.8-0.5-1.3-1.3-1.3s-1.3,0.5-1.3,1.3V33C60.3,33.7,61,34.3,61.7,34.3z   M60.3,41.8c0,0.8,0.5,1.3,1.3,1.3s1.3-0.5,1.3-1.3v-3.3c0-0.8-0.5-1.3-1.3-1.3s-1.3,0.5-1.3,1.3V41.8z M67.2,36.1v-4.6  c0-0.8-0.5-1.3-1.3-1.3s-1.3,0.5-1.3,1.3v4.6c0,0.8,0.5,1.3,1.3,1.3S67.2,36.9,67.2,36.1z" vector-effect="non-scaling-stroke" style="fill: rgb(255, 255, 255);"/></g></svg>