<svg version="1.2" xmlns="http://www.w3.org/2000/svg" xmlns:xlink="http://www.w3.org/1999/xlink" overflow="visible" preserveAspectRatio="none" viewBox="0 0 165.6999969482422 82.4000015258789" xml:space="preserve" y="0px" x="0px" id="Layer_1_1560472472145" width="100" height="49"><g transform="translate(1, 1)"><style type="text/css">
	.st0_1560472472145{fill:#231F20;}
</style><path d="M7.6,52.3c-4.9,0-7.6-3.4-7.6-9.2v-2.8h4.9v3.5c0,2.1,0.8,3.1,2.4,3.1s2.6-1,2.6-3c0-3.5-1-4.8-4.4-9.1  c-2.8-3-5.4-6.7-5.4-11.3c0-5.7,3.1-9.2,7.4-9.2c5,0,7.4,3.8,7.4,9v3.1h-4.7v-3.8c0.2-1.4-0.8-2.6-2.2-2.7c-0.1,0-0.2,0-0.4,0  c-1.5,0-2.3,1.1-2.3,2.8c0,2.9,1.3,4.9,4.1,8.4c3,3.3,5.6,6.7,5.6,11.9C15.1,48.4,12.4,52.3,7.6,52.3z" class="st0_1560472472145" vector-effect="non-scaling-stroke" style="fill: rgb(151, 140, 135);"/><path d="M25.5,20.3v21.2c-0.1,3.4,0.2,6.8,1,10.1h-5.4c-1-3.3-1.4-6.7-1.3-10.1V20.3h-2.6V15h3V9.3l5.3-1.8v7.6h3.1v5.3  h-3.1V20.3z" class="st0_1560472472145" vector-effect="non-scaling-stroke" style="fill: rgb(151, 140, 135);"/><path d="M37.3,25.3v26.3h-5.6V14.9h5l0.4,4.2c1-3.4,3.2-4.9,6-4.6v6.7C39,20.9,37.3,22.3,37.3,25.3z" class="st0_1560472472145" vector-effect="non-scaling-stroke" style="fill: rgb(151, 140, 135);"/><path d="M60,52.3c-1.8,0-3.3-1.1-4-3.4c-0.9,2-2.8,3.4-5,3.4c-3.7,0-6-3.2-6-8.5v-2.4c0-6.2,4.2-9.8,9.7-12.7v-6  c0-1.7-0.5-2.7-1.9-2.7s-1.9,1-1.9,2.8v3.8h-5v-3.5c0-5,2.6-8.6,7.2-8.6s7,3.7,7,8.9V46c0,1,0.3,1.6,1.2,1.8v4.5H60z M54.7,34  c-2.8,1.5-4.4,3.8-4.4,6.4V44c0,1.7,0.5,3,2,3s2.4-1.6,2.4-3.4V34z" class="st0_1560472472145" vector-effect="non-scaling-stroke" style="fill: rgb(151, 140, 135);"/><path d="M71.7,20.3v21.2c-0.1,3.4,0.2,6.8,1,10.1h-5.4c-1-3.3-1.4-6.7-1.3-10.1V20.3h-2.6V15h3V9.3l5.3-1.8v7.6h3.1v5.3  h-3.1V20.3z" class="st0_1560472472145" vector-effect="non-scaling-stroke" style="fill: rgb(151, 140, 135);"/><path d="M88,51.6v-29c0-1.6-0.8-2.7-2.1-2.7s-2.3,1.6-2.3,3.1v28.6H78v-51h5.6v17.6c0.9-2.5,2.8-3.9,4.9-3.9  c3.1,0,5.1,2.9,5.1,7v30.2L88,51.6z" class="st0_1560472472145" vector-effect="non-scaling-stroke" style="fill: rgb(151, 140, 135);"/><path d="M112.3,52.3c-1.8,0-3.3-1.1-4-3.4c-0.9,2-2.8,3.4-5,3.4c-3.7,0-6-3.2-6-8.5v-2.4c0-6.2,4.2-9.8,9.7-12.7v-6  c0-1.7-0.5-2.7-1.9-2.7s-1.9,1-1.9,2.8v3.8h-5.1v-3.5c0-5,2.6-8.6,7.2-8.6s7,3.7,7,8.9V46c0,1,0.3,1.6,1.2,1.8v4.5H112.3z M107,34  c-2.8,1.5-4.4,3.8-4.4,6.4V44c0,1.7,0.5,3,2,3s2.4-1.6,2.4-3.4V34z" class="st0_1560472472145" vector-effect="non-scaling-stroke" style="fill: rgb(151, 140, 135);"/><path d="M117.3,51.6v-51h5.6v51H117.3z" class="st0_1560472472145" vector-effect="non-scaling-stroke" style="fill: rgb(151, 140, 135);"/><path d="M141.8,52.3c-1.8,0-3.3-1.1-4-3.4c-0.9,2-2.9,3.4-5.1,3.4c-3.7,0-6-3.2-6-8.5v-2.4c0-6.2,4.2-9.8,9.7-12.7v-6  c0-1.7-0.5-2.7-1.9-2.7s-1.9,1-1.9,2.8v3.8h-5.1v-3.5c0-5,2.6-8.6,7.2-8.6s7,3.7,7,8.9V46c0,1,0.3,1.6,1.2,1.8v4.5H141.8z M136.5,34  c-2.8,1.5-4.4,3.8-4.4,6.4V44c0,1.7,0.5,3,2,3s2.4-1.6,2.4-3.4V34z" class="st0_1560472472145" vector-effect="non-scaling-stroke" style="fill: rgb(151, 140, 135);"/><path d="M156.8,51.6v-29c0-1.6-0.8-2.7-2.1-2.7c-1.5,0-2.4,1.6-2.4,3.1v28.6h-5.6V14.9h5l0.3,3.7c1-2.8,2.9-4.3,5-4.3  c3.3,0,5.3,2.9,5.3,7v30.2L156.8,51.6z" class="st0_1560472472145" vector-effect="non-scaling-stroke" style="fill: rgb(151, 140, 135);"/><path d="M92,77.6c1.2,0,1.6-0.2,1.7-2l0.5-7.4c0.1-1.8-0.1-2.1-1.3-2.1v-0.5h3.7L101,75l4.1-9.4h3.7v0.6  c-1.1,0-1.4,0.2-1.3,1.2l0.7,9.2c0.1,1,0.5,1.1,1.7,1.1v0.5h-5.7v-0.5c1.7,0,1.9-0.4,1.8-2.5l-0.5-7.5l0,0l-4.7,10.5h-0.7l-4.8-10.3  l0,0l-0.5,7.5c-0.1,2.2,0.3,2.2,1.6,2.3v0.5H92V77.6z" class="st0_1560472472145" vector-effect="non-scaling-stroke" style="fill: rgb(151, 140, 135);"/><path d="M119,77.1c-0.6,0.7-1.5,1.1-2.4,1.2c-0.8,0-1.2-0.4-1.1-1.2c-1,0.8-1.2,1.2-2.4,1.2c-1.1,0-2-0.8-2.1-1.9  c0-0.5,0.2-1,0.5-1.4c0.5-0.4,1.1-0.7,1.7-0.8c0.8-0.2,1.6-0.5,2.2-1v-0.6c0-1.4-0.4-2-1.4-2c-0.6,0-1.1,0.4-1.1,0.8  c0,0.2,0.1,0.4,0.2,0.6l-1.8,0.8c-0.2-0.2-0.2-0.4-0.2-0.6c0-1,1.9-2.3,3.7-2.3s2.7,0.8,2.7,2.3v4.5c0,0.4,0.1,0.7,0.4,0.7  c0.4-0.1,0.7-0.2,1-0.5L119,77.1z M115.5,73.8c-2.2,1.3-2.5,1.4-2.5,2.4c0,0.7,0.4,1.2,1,1.2c0.3,0,0.5-0.1,0.7-0.3  c0.2-0.2,0.4-0.3,0.8-0.6V73.8z" class="st0_1560472472145" vector-effect="non-scaling-stroke" style="fill: rgb(151, 140, 135);"/><path d="M127.3,76.2c-0.9,1.3-2.3,2.1-3.9,2.2c-2,0.1-3.7-1.5-3.7-3.5c0-0.2,0-0.3,0-0.5c0-2.7,2.1-4.6,5-4.6  c1.6,0,2.6,0.5,2.6,1.4c0,0.4-0.4,0.8-0.8,0.8c0,0,0,0-0.1,0c-1.1,0-1.5-1.5-2.6-1.5c-1.2,0-2.2,1.5-2.2,3.4c0,2.1,1,3.5,2.5,3.5  c1.1,0,2.1-0.6,2.8-1.5L127.3,76.2z" class="st0_1560472472145" vector-effect="non-scaling-stroke" style="fill: rgb(151, 140, 135);"/><path d="M128,65.4l2.9-0.9h0.6v11.6c0,1.1,0.3,1.5,1.5,1.5v0.5h-5v-0.5c1.3,0,1.5-0.4,1.5-1.6v-8.8  c0-0.9-0.1-1.1-1.5-1.3V65.4z" class="st0_1560472472145" vector-effect="non-scaling-stroke" style="fill: rgb(151, 140, 135);"/><path d="M141.7,76.1c-0.9,1.4-2.4,2.3-4.1,2.2c-2.8,0-3.8-2.2-3.8-4.1c-0.2-2.3,1.6-4.3,3.9-4.5c0.1,0,0.2,0,0.3,0  c0.9,0,1.8,0.3,2.5,0.9c0.9,0.9,0.6,1.9,1.3,2.2v0.6h-6c0,2.2,1.2,3.7,3,3.7c1-0.1,1.9-0.6,2.5-1.4L141.7,76.1z M139.5,72.9  c-0.2-1.7-0.8-2.5-1.8-2.5s-1.7,0.9-1.9,2.5H139.5z" class="st0_1560472472145" vector-effect="non-scaling-stroke" style="fill: rgb(151, 140, 135);"/><path d="M147.8,69.8c2.4-0.2,4.4,1.6,4.6,3.9s-1.6,4.4-3.9,4.6c-0.2,0-0.4,0-0.6,0c-2.9,0-4.7-1.7-4.7-4.3  S145,69.8,147.8,69.8z M148.2,77.7c1.4,0,2.2-1.1,2.2-3c0-2.4-1.3-4.3-2.9-4.3c-1.4,0-2.3,1.2-2.3,3  C145.2,75.8,146.5,77.7,148.2,77.7L148.2,77.7z" class="st0_1560472472145" vector-effect="non-scaling-stroke" style="fill: rgb(151, 140, 135);"/><path d="M160.4,77.1c-1,0.8-2.1,1.2-3.3,1.3c-1.8,0-3.2-1.7-3.2-3.9c0-2.6,2-4.6,4.6-4.7c0.1,0,0.1,0,0.2,0  c0.6,0,1.2,0.1,1.7,0.2v-3c0-0.7-0.3-1.1-1.3-1.1v-0.5l2.7-0.9h0.5v11.6c0,0.5,0.2,0.6,0.6,0.6c0.3,0,0.5-0.1,0.8-0.2V77l-2.8,1.3  h-0.5V77.1z M160.4,72.1c-0.8-1-1.4-1.5-2.3-1.5c-1.4,0-2.2,1.2-2.2,3.1c0,2.1,1,3.5,2.4,3.5c0.8-0.1,1.5-0.3,2.2-0.8L160.4,72.1z" class="st0_1560472472145" vector-effect="non-scaling-stroke" style="fill: rgb(151, 140, 135);"/></g></svg>