<?xml version="1.0" encoding="utf-8"?>
<!-- Generator: Adobe Illustrator 23.0.4, SVG Export Plug-In . SVG Version: 6.00 Build 0)  -->
<svg version="1.1" id="Layer_1" xmlns="http://www.w3.org/2000/svg" xmlns:xlink="http://www.w3.org/1999/xlink" x="0px" y="0px"
	 viewBox="0 0 107.1 44.5" style="enable-background:new 0 0 107.1 44.5;" xml:space="preserve">
<style type="text/css">
	.st0{fill:#434444;}
</style>
<path class="st0" d="M78.6,5.1V5c-0.3-0.7-1.2-1-1.9-1.1c-0.9-0.1-1.8-0.3-2.6-0.1c-0.9,0.1-1.6,0.6-2.3,1.1c-1.3,0.9-2.5,2.1-3,3.7
	L68.7,9c-0.5,1-0.9,2.1-1.2,3.2c0-0.4,0-0.9,0-1.3c-0.2-1.5,1-3.1,0.4-4.7c-0.4-1-1.5-1.6-2.5-1.8c-1.1-0.2-2.1-0.2-3.1-0.4
	c0,0-0.3-0.1-0.4,0C61.8,4.1,62,4.7,62,4.8c0.1,0.6,0,1.2-0.2,1.8c-0.4,2.3-0.7,4.6-0.9,7c-0.1,1.1-0.1,2.3-0.1,3.5c0,1-0.2,2-0.2,3
	c0,0.3,0,0.6,0.1,0.9c-0.5,0.5-1,0.9-1.7,1.3c-0.2,0.1-0.4,0.2-0.6,0.1c-0.4-0.2-0.3-1.5-0.3-1.8C58,19.4,58,18.2,58,17.1
	c0-2.3,0-4.5-0.1-6.8c0-0.4,0-0.8-0.3-1.1c-0.3-0.3-0.7-0.4-1.1-0.4L55,8.5c-0.4,0-0.8-0.3-1.1-0.2c-0.1,0,0,0-0.2,0.2
	c-0.4,0.2-0.4,0.6-0.5,1.1c-0.2,1.1-0.5,2.3-0.9,3.4c-0.4,1-0.9,1.9-1.3,2.8l-0.6,1c-0.6,1.2-1.3,2.4-2.2,3.4
	c-0.1-1.1-0.1-2.3,0-3.4c0-0.4,0-0.7,0-1.1l0.2-3c0-0.4,0-0.9,0.1-1.4c0-0.4,0-0.7,0.1-1l0.1-1c0-0.7,0-1.4-0.3-2
	c-0.2-0.4-0.6-0.7-1.1-1c-0.2-0.1-0.5-0.2-0.8-0.3c-0.3-0.1-0.6-0.1-0.9-0.1l-1.3-0.1c-0.4,0-0.6,0.1-1.1,0.1c0,0-0.1,0-0.1,0
	c-0.1,0,0,0.1,0,0.2v0.1c0.1,0.2,0,0.4,0,0.6l-0.3,0.8l-0.5,1.6c-0.3,1.1-0.5,2.2-0.7,3.3c0,0.1,0,0.2,0,0.3
	c-0.9,0.3-1.9,0.5-2.8,0.7c0.4-3,0.2-6.1-0.7-8.9c-0.2-0.6-0.4-1.3-0.9-1.9c-0.4-0.6-1.1-1.1-1.7-1.5c-0.2-0.1-0.3-0.2-0.5-0.3
	c-0.1-0.1-0.3-0.1-0.4-0.1c-0.4,0-0.8-0.1-1.2-0.1c-0.6,0-1.3,0.2-1.9,0.4c-1.5,0.6-2.9,1.5-3.9,2.7c-0.7,0.8-1.2,1.7-1.3,2.7h0
	c-0.5-0.1-0.7-0.2-1.2,0.1c-0.4,0.3-0.8,0.8-1.1,1.2c-0.6,0.9-1,2-1.3,3.1c-0.4,1.5-0.6,3-0.8,4.5c-0.1,0.7-0.2,1.4-0.1,2.1
	c0,0.2,0,0.3,0,0.5c-0.7,1.1-1.4,2.2-2.3,3.3c-0.3,0.4-0.6,0.7-1,1.1c0-2,0-4.1-0.1-6.1c0-0.6,0-1.3,0-1.9c0.2-1,0.9-1.7,1.5-2.5
	c0.4-0.5,0.9-1.1,0.9-1.7c0-0.6-0.4-1.3-1-1.6C19.3,8.3,18.7,8.2,18,8c-1.2-0.2-2.6-0.5-3.5,0.2c-0.4,0.3-0.6,0.7-0.9,1.1
	c-0.8,1.3-1.4,2.6-2,3.9c-0.9,1.6-1.9,3.2-2.9,4.6c-0.4,0.6-1.1,1.7-1.7,2.1c-1.1,0.6-0.9-0.6-0.7-1.4c0.3-2.3,0.6-4.5,1.4-6.6
	C8,10.9,8.5,9.6,7.8,8.6C7.6,8.2,7.3,8,6.9,7.8c-2.6-1-4.5,2-5.4,3.9c-1,2.4-1.3,5.1-0.7,7.6c0.3,1.5,1,3,1.8,4.2
	c0.7,1.1,2.1,1.4,3.3,1.7c0.3,0.1,0.6,0.2,1,0.1c0.4,0,0.8-0.2,1.1-0.4c1.5-0.9,1.8-1.5,2.5-3c0.7-1.5,1.5-3.1,2.3-4.5
	c0.3-0.6,0.9-1.1,1.4-1.5c0.3,1.5,0,3.3-0.1,4.8c0,0.9-0.1,1.7-0.1,2.6c0,0.7,0.2,1.8-0.1,2.4c-0.4,1.1-2.4,2.2-3.4,2.8
	c-0.2,0.1-0.3,0.2-0.4,0.3L10,28.9l-0.1,0.2c-0.4,0.5-1,0.8-1.5,1.2c-1.8,1.1-3.2,2.8-4.5,4.4c-0.5,0.6-1.1,1.3-1.5,1.9
	c-0.5,0.9-0.9,1.8-1.1,2.8c-0.2,0.8-0.2,1.7,0,2.4c1,3.2,5.6,2.1,7.9,1.2c1.2-0.5,2.3-1.2,3.3-2c2.5-1.8,4.1-5.4,4.9-8.2
	c0.5-1.9,0.6-3.8,1.1-5.7l0.1-0.4c0.1-0.2,0.3-0.4,0.5-0.5c1.4-1.3,2.6-3,3.7-4.5c0.1,0.1,0.1,0.3,0.2,0.4c0.7,1.4,1.7,2.8,3.4,3.1
	c1.7,0.4,3.6,0.2,5.2-0.5c0.9-0.4,1.6-1.1,2.3-1.7c2.3-2.2,3.9-5.2,4.5-8.3c1-0.1,1.9-0.2,2.9-0.4c-0.2,1.6-0.2,3.2,0,4.8
	c0,0.4,0.1,0.9,0.3,1.4c0.1,0.2,0.2,0.5,0.4,0.7c0.3,0.5,0.6,1.1,1.1,1.5c0.6,0.5,1.3,0.9,2.1,1c0.9,0.2,1.9-0.2,2.6-0.6
	c0.9-0.7,1.6-1.7,2.2-2.6c1.4-2.1,2.8-4.3,3.5-6.7c0,0.6,0,1.2,0,1.8c0,2.1,0.2,4.2,0.2,6.4v0c0,0.6,0,1.3,0.4,1.8
	c0.5,0.8,2.1,0.6,3,0.4c0.5-0.1,1-0.4,1.4-0.6c0.8-0.4,1.6-1,2.3-1.6c0.2,0.5,0.4,0.9,0.7,1.4c0.1,0.1,0.2,0.2,0.3,0.3
	c0.2,0.2,0.5,0.2,0.8,0.3c0.6,0.1,1.1,0.3,1.7,0.4c0.6,0.1,1.2,0,1.5-0.4c0.2-0.3,0.3-0.6,0.3-1c0.3-2.4,0.6-4.6,1.5-6.7
	c0.9-2,2.1-4,3.3-5.8c1.6-2.4,4.5-4.5,7.3-5.3L78.6,5.1z M13.7,30.6c-0.1,1.2-0.3,2.3-0.6,3.5c-0.4,1.7-1.1,3.3-2.1,4.8
	C11,39,11,39.2,10.8,39.3c-0.6,0.9-1.3,1.4-2.4,1.7c-0.9,0.3-2.8,1.4-3.4,0.1c-0.2-0.6-0.1-1.3,0.1-1.9c0.2-0.9,0.4-1.7,0.9-2.5
	c0.4-0.7,0.9-1.3,1.4-1.9c1.5-1.7,3.2-3.4,5.1-4.8c0.2-0.2,0.9-0.8,1.2-0.6C14.1,29.6,13.8,30.3,13.7,30.6 M32.6,18.7
	c-0.4,1-0.8,1.9-1.3,2.8c-0.4,0.7-1.3,1.5-2,1.9c-0.5,0.3-1.2,0.4-1.7,0c-0.4-0.3-0.6-0.9-0.6-1.4c-0.2-1.5,0.2-3.1,0.7-4.6
	c0.4-1.5,0.8-3,1.6-4.3c0.4,0.2,0.7,0.3,1.1,0.4c1.1,0.4,2.3,0.7,3.4,0.9C33.5,15.9,33.1,17.3,32.6,18.7 M34,13.8
	c-1.6-0.2-3.1-0.7-3.9-2.1c0.4-0.8,0.9-1.6,1.8-2.3c-0.7-0.9-1.6-1.5-2.6-2c0.1-0.5,0.2-1.1,0.4-1.6c0.4-1.1,1.1-2.1,1.9-2.9
	c0.7-0.6,2.4-1.8,2.6-0.2C34.8,6.5,34.7,10.2,34,13.8"/>
<path class="st0" d="M106.4,34.5c0-0.2-0.2-0.4-0.4-0.4c-0.2,0-0.4,0.2-0.4,0.4c0,0.2,0.2,0.4,0.4,0.4
	C106.3,34.9,106.4,34.7,106.4,34.5 M105.6,30.2V30h-1.8v0.2h0.1c0.3,0,0.4,0.1,0.4,0.2c0,0.1-0.1,0.2-0.1,0.3l-1.1,1.8l-1.2-1.9
	c0-0.1-0.1-0.2-0.1-0.3c0-0.1,0.1-0.2,0.4-0.2h0.1V30h-2.1v0.2h0.1c0.3,0,0.5,0.1,0.8,0.6l1.4,2.2v1c0,0.4-0.1,0.6-0.6,0.6h-0.1v0.2
	h2.2v-0.2h-0.2c-0.4,0-0.6-0.1-0.6-0.5V33l1.2-2.1C104.8,30.4,105.1,30.2,105.6,30.2 M100.2,31.2l-0.1-1.3h-0.2
	c-0.1,0.1-0.1,0.1-0.2,0.1H96c-0.2,0-0.2,0-0.2-0.1h-0.2l-0.1,1.3h0.2c0.1-0.7,0.2-0.9,0.6-0.9h1.2v3.8c0,0.4-0.1,0.5-0.9,0.5v0.2
	H99v-0.2c-0.7,0-0.9-0.1-0.9-0.5v-3.8h1.2c0.4,0,0.5,0.2,0.6,0.9H100.2z M95.1,34.8v-0.2h-0.3c-0.3,0-0.4-0.2-0.4-0.5v-3.4
	c0-0.3,0.2-0.5,0.4-0.5h0.3V30H93v0.2h0.3c0.3,0,0.4,0.2,0.4,0.5v3.4c0,0.3-0.2,0.5-0.4,0.5H93v0.2H95.1z M92.7,30.2V30h-1.9v0.2H91
	c0.4,0,0.6,0.2,0.6,0.5v3L88.2,30H87v0.2c0.2,0,0.5,0.1,0.6,0.2v3.8c0,0.3-0.1,0.4-0.5,0.4H87v0.2h1.8v-0.2h-0.2
	c-0.4,0-0.6-0.1-0.6-0.5v-3.3l3.8,4.1h0.2v-4.2C92.1,30.3,92.1,30.2,92.7,30.2 M86.8,30.2V30h-1.9v0.2c0.5,0,0.7,0.1,0.7,0.6v2.1
	c0,0.9-0.6,1.6-1.6,1.6c-0.9,0-1.6-0.5-1.6-1.6v-2c0-0.4,0.1-0.6,0.5-0.6h0.2V30H81v0.2c0.5,0,0.6,0.1,0.6,0.4v2.3
	c0,1.5,1.1,2,2.2,2c1.5,0,2.2-0.9,2.2-1.9v-2.2c0-0.4,0.2-0.6,0.6-0.6H86.8z M80.9,34.8v-0.2c-0.6,0-0.7-0.1-0.7-0.5L80,30.6
	c0-0.3,0-0.3,0.5-0.4V30h-1.2l-1.7,3.8L75.8,30h-1.2v0.2c0.4,0,0.5,0.2,0.5,0.5L74.9,34c0,0.5-0.1,0.6-0.7,0.6v0.2h1.8v-0.2
	c-0.5,0-0.7-0.2-0.6-0.6l0.2-3.1l1.8,3.9h0.2l1.8-3.9l0.2,3c0,0.6-0.1,0.7-0.7,0.7v0.2H80.9z M74.1,34.8v-0.2
	c-0.6,0-0.7-0.1-0.7-0.5l-0.2-3.6c0-0.3,0-0.3,0.5-0.4V30h-1.2l-1.7,3.8L69.1,30h-1.2v0.2c0.4,0,0.5,0.2,0.5,0.5L68.1,34
	c0,0.5-0.1,0.6-0.7,0.6v0.2h1.8v-0.2c-0.5,0-0.7-0.2-0.6-0.6l0.2-3.1l1.8,3.9h0.2l1.8-3.9l0.2,3c0,0.6-0.1,0.7-0.7,0.7v0.2H74.1z
	 M66.4,32.5c0,1.3-0.8,2.1-1.9,2.1c-1,0-2-0.9-2-2.3c0-1.3,0.7-2.1,1.9-2.1C65.3,30.2,66.4,31,66.4,32.5 M67.2,32.3
	c0-1.3-1.1-2.4-2.7-2.4c-1.7,0-2.8,1.3-2.8,2.6c0,1.3,1.1,2.4,2.7,2.4C66.2,34.9,67.2,33.6,67.2,32.3 M61.3,33.6H61
	c-0.4,0.8-1.2,1.1-1.7,1.1c-1.2,0-2.1-1-2.1-2.4c0-1.4,1-2.1,2-2.1c0.8,0,1.4,0.4,1.6,1.2h0.2L61,30.2h-0.2c0,0,0,0-0.1,0
	c0,0-0.1,0-0.2,0c-0.5-0.2-0.9-0.3-1.4-0.3c-1.7,0-2.8,1.3-2.8,2.6c0,1.4,1.2,2.5,2.8,2.5c0.4,0,0.7-0.1,0.9-0.1
	c0.2,0,0.3-0.1,0.5-0.1c0.1,0,0.1,0,0.2,0C61,34.4,61.1,34,61.3,33.6 M54.4,31v-1h-3.6v0.2H51c0.3,0,0.5,0.1,0.5,0.5V34
	c0,0.5-0.2,0.6-0.5,0.6h-0.2v0.2H53v-0.2h-0.1c-0.5,0-0.7-0.1-0.7-0.5v-1.7h1.3c0.4,0,0.5,0.2,0.5,0.6h0.2v-1.4H54
	c0,0.3-0.1,0.5-0.4,0.5h-1.4v-1.7h1.5c0.3,0,0.5,0.2,0.5,0.6H54.4z M49.6,32.5c0,1.3-0.8,2.1-1.9,2.1c-1,0-2-0.9-2-2.3
	c0-1.3,0.7-2.1,1.9-2.1C48.5,30.2,49.6,31,49.6,32.5 M50.4,32.3c0-1.3-1.1-2.4-2.7-2.4c-1.7,0-2.8,1.3-2.8,2.6
	c0,1.3,1.1,2.4,2.7,2.4C49.4,34.9,50.4,33.6,50.4,32.3 M42.1,32.3c0,1.5-1.1,2.2-2.3,2.2h-0.5c-0.2,0-0.3-0.1-0.3-0.3v-4.1
	c0.2,0,0.4,0,0.5,0C40.9,30.2,42.1,30.7,42.1,32.3 M42.9,32.3c0-1.3-0.8-2.4-3.1-2.4c-0.6,0-1.5,0-2.3,0.1v0.2h0.2
	c0.4,0,0.5,0.2,0.5,0.5v3.1c0,0.7-0.1,0.8-0.7,0.8v0.2H40C41.4,34.8,42.9,33.9,42.9,32.3 M37.3,30.2V30h-1.9v0.2h0.1
	c0.4,0,0.6,0.2,0.6,0.5v3L32.8,30h-1.3v0.2c0.2,0,0.5,0.1,0.6,0.2v3.8c0,0.3-0.1,0.4-0.5,0.4h-0.2v0.2h1.8v-0.2h-0.2
	c-0.4,0-0.6-0.1-0.6-0.5v-3.3l3.8,4.1h0.2v-4.2C36.6,30.3,36.7,30.2,37.3,30.2 M31.2,34.8v-0.2H31c-0.3,0-0.4-0.2-0.4-0.5v-3.4
	c0-0.3,0.2-0.5,0.4-0.5h0.3V30h-2.1v0.2h0.3c0.3,0,0.4,0.2,0.4,0.5v3.4c0,0.3-0.2,0.5-0.4,0.5h-0.3v0.2H31.2z M28.9,34.8v-0.2h-0.2
	c-0.4,0-0.6-0.2-0.9-0.4c-0.1-0.2-0.8-1-1.3-1.5c-0.2-0.2-0.3-0.3-0.4-0.4c0.4-0.4,0.7-0.8,0.9-1.1c0.1-0.2,0.2-0.3,0.3-0.4
	c0.3-0.4,0.5-0.5,1.1-0.5h0.1V30h-2.1v0.2h0.2c0.2,0,0.3,0.1,0.3,0.2c0,0.2-0.7,1.2-1,1.5c-0.3,0.3-0.5,0.4-0.7,0.4v-1.7
	c0-0.3,0.1-0.5,0.5-0.5h0.2V30h-2.2v0.2h0.2c0.4,0,0.6,0.1,0.6,0.5v3.4c0,0.4-0.1,0.5-0.6,0.5h-0.2v0.2h2.2v-0.2h-0.3
	c-0.3,0-0.5-0.2-0.5-0.5v-1.5c0.2,0,0.4,0.1,0.8,0.5l0.6,0.6c0.3,0.3,0.5,0.6,0.5,0.7c0,0.1-0.2,0.2-0.4,0.2h-0.1v0.2H28.9z"/>
</svg>
